<svg xmlns="http://www.w3.org/2000/svg" xmlns:xlink="http://www.w3.org/1999/xlink" width="373" zoomAndPan="magnify" viewBox="0 0 279.75 74.999997" height="100" preserveAspectRatio="xMidYMid meet" version="1.0"><defs><g/></defs><path fill="#ff914d" d="M 57.34375 14.515625 C 56.261719 14.738281 54.542969 15.3125 53.527344 15.757812 C 51.902344 16.488281 51.808594 16.550781 52.792969 16.425781 C 53.398438 16.359375 55.179688 16.074219 56.738281 15.757812 C 59.15625 15.3125 60.015625 15.28125 62.464844 15.628906 C 72.003906 16.839844 79.511719 23.070312 82.246094 32.042969 C 82.976562 34.488281 83.105469 35.347656 83.074219 38.816406 C 83.042969 42.125 82.914062 43.203125 82.277344 45.175781 C 81.453125 47.691406 79.605469 51.539062 79.035156 51.917969 C 78.8125 52.078125 78.84375 52.175781 79.097656 52.175781 C 79.574219 52.175781 81.515625 49.4375 82.691406 47.148438 C 84.25 44.0625 84.917969 41.011719 84.949219 37.066406 C 84.949219 33.820312 84.726562 32.488281 83.679688 29.050781 C 83.199219 27.429688 81.515625 24.472656 79.988281 22.5 C 74.929688 16.105469 65.421875 12.734375 57.34375 14.515625 Z M 57.34375 14.515625 " fill-opacity="1" fill-rule="nonzero"/><path fill="#ff914d" d="M 56.929688 17.855469 C 50.027344 19.636719 45.128906 23.644531 42.710938 29.433594 C 41.3125 32.804688 40.898438 37.351562 41.695312 40.882812 L 42.140625 42.792969 L 42.332031 38.65625 C 42.617188 32.644531 44.046875 29.113281 47.671875 25.363281 C 50.089844 22.847656 52.507812 21.324219 55.941406 20.144531 C 61.0625 18.394531 67.902344 19.351562 72.292969 22.371094 C 73.4375 23.136719 73.816406 22.816406 72.800781 21.925781 C 68.953125 18.554688 61.574219 16.648438 56.929688 17.855469 Z M 56.929688 17.855469 " fill-opacity="1" fill-rule="nonzero"/><path fill="#ff914d" d="M 58.933594 22.085938 C 56.292969 22.660156 56.644531 22.882812 60.140625 22.847656 C 64.46875 22.816406 67.140625 23.707031 70.191406 26.15625 C 75.886719 30.707031 77.667969 38.785156 74.390625 45.242188 C 73.976562 46.066406 74.039062 46.257812 74.582031 45.8125 C 75.820312 44.761719 77.285156 40.3125 77.285156 37.480469 C 77.285156 29.816406 72.257812 23.707031 64.625 22.117188 C 61.988281 21.578125 61.253906 21.578125 58.933594 22.085938 Z M 58.933594 22.085938 " fill-opacity="1" fill-rule="nonzero"/><path fill="#ff914d" d="M 41.695312 24.949219 C 40.390625 26.507812 38.671875 30.101562 37.910156 32.835938 C 37.144531 35.636719 37.179688 42.058594 37.972656 44.699219 C 40.328125 52.492188 45.894531 58.152344 53.589844 60.632812 C 55.117188 61.113281 56.386719 61.238281 60.109375 61.207031 C 62.652344 61.207031 65.292969 61.046875 65.992188 60.855469 C 67.585938 60.476562 70.667969 59.140625 70.476562 58.949219 C 70.414062 58.851562 69.109375 59.109375 67.617188 59.457031 C 54.988281 62.574219 42.074219 54.304688 39.46875 41.421875 C 38.417969 36.238281 39.722656 28.925781 42.394531 25.042969 C 43.378906 23.613281 42.871094 23.550781 41.695312 24.949219 Z M 41.695312 24.949219 " fill-opacity="1" fill-rule="nonzero"/><path fill="#ff914d" d="M 47.484375 29.972656 C 45.289062 32.742188 44.429688 39.070312 45.734375 43.015625 C 47.449219 48.230469 51.902344 52.269531 57.246094 53.445312 C 59.539062 53.957031 65.515625 53.511719 65.515625 52.84375 C 65.515625 52.746094 63.894531 52.652344 61.953125 52.652344 C 59.695312 52.652344 57.945312 52.492188 57.246094 52.207031 C 51.746094 50.105469 48.339844 46.640625 46.847656 41.582031 C 45.957031 38.496094 46.371094 33.058594 47.707031 30.546875 C 48.117188 29.75 47.960938 29.371094 47.484375 29.972656 Z M 47.484375 29.972656 " fill-opacity="1" fill-rule="nonzero"/><path fill="#ff914d" d="M 79.734375 32.359375 C 79.605469 32.550781 79.636719 33.34375 79.828125 34.109375 C 80.59375 37.511719 79.828125 41.996094 77.824219 45.8125 C 75.886719 49.503906 72.925781 52.460938 69.429688 54.210938 C 66.152344 55.832031 64.945312 56.117188 60.746094 56.117188 C 56.101562 56.148438 54.003906 55.609375 50.121094 53.351562 C 49.265625 52.875 48.53125 52.523438 48.4375 52.621094 C 48.246094 52.808594 51.363281 55.101562 52.953125 55.925781 C 55.433594 57.230469 57.34375 57.675781 61 57.835938 C 63.765625 57.929688 65.070312 57.835938 66.566406 57.421875 C 73.023438 55.671875 78.078125 50.804688 80.210938 44.382812 C 80.816406 42.535156 80.941406 41.519531 80.910156 38.433594 C 80.878906 36.304688 80.71875 34.523438 80.527344 34.300781 C 80.371094 34.078125 80.148438 33.441406 80.082031 32.929688 C 80.019531 32.359375 79.894531 32.136719 79.734375 32.359375 Z M 79.734375 32.359375 " fill-opacity="1" fill-rule="nonzero"/><g fill="#dfdbdb" fill-opacity="1"><g transform="translate(103.959149, 42.14301)"><g><path d="M 14.65625 -14.429688 C 14.625 -14.234375 14.71875 -13.976562 14.71875 -13.78125 C 14.753906 -12.78125 14.527344 -11.777344 14.300781 -10.839844 C 13.75 -8.542969 12.875 -6.308594 11.746094 -4.238281 C 11.195312 -3.203125 10.578125 -2.199219 9.867188 -1.261719 C 9.542969 -0.839844 9.1875 -0.453125 8.832031 -0.0976562 C 8.636719 0.0976562 7.796875 0.679688 7.765625 0.96875 C 7.765625 1.003906 8.507812 0.484375 8.574219 0.453125 C 8.28125 0.710938 7.992188 0.96875 7.667969 1.195312 C 7.828125 1.035156 7.148438 1.421875 7.148438 1.421875 C 6.890625 1.585938 6.601562 1.714844 6.277344 1.84375 C 5.757812 2.039062 5.144531 2.199219 4.5625 2.167969 C 3.007812 2.039062 2.878906 0.386719 2.976562 -0.839844 C 3.234375 -4.207031 4.59375 -7.765625 5.984375 -10.839844 C 7.441406 -14.042969 9.1875 -17.308594 11.519531 -19.960938 C 11.90625 -20.382812 12.585938 -21.160156 13.265625 -21.644531 C 12.003906 -20.867188 10.96875 -19.542969 10.125 -18.375 C 11 -19.605469 12.066406 -20.996094 13.394531 -21.804688 C 14.007812 -22.160156 15.011719 -22.519531 15.207031 -21.578125 C 15.398438 -20.671875 14.785156 -19.542969 14.398438 -18.796875 C 13.683594 -17.503906 12.78125 -16.339844 11.679688 -15.398438 C 11.746094 -15.496094 12.648438 -16.433594 12.648438 -16.433594 C 12.554688 -16.46875 11.484375 -15.464844 11.386719 -15.367188 C 11.324219 -15.304688 10.125 -14.496094 10.0625 -14.460938 L 10.09375 -14.460938 C 9.964844 -14.398438 9.867188 -14.363281 9.867188 -14.332031 C 9.511719 -13.816406 10.449219 -13.425781 10.839844 -13.394531 C 11.777344 -13.230469 12.714844 -14.042969 13.394531 -14.589844 C 14.753906 -15.625 16.078125 -16.953125 17.019531 -18.410156 C 17.40625 -18.992188 17.890625 -20.058594 17.828125 -20.804688 C 17.695312 -22.160156 16.207031 -23.554688 15.011719 -24.101562 C 13.878906 -24.589844 12.683594 -24.039062 11.679688 -23.457031 C 10.160156 -22.582031 8.898438 -21.289062 7.796875 -19.898438 C 7.3125 -19.28125 6.859375 -18.636719 6.375 -17.988281 L 5.695312 -17.019531 C 5.597656 -16.886719 5.433594 -16.53125 5.304688 -16.339844 L 5.371094 -16.402344 L 4.464844 -14.945312 L 4.660156 -15.304688 C 4.496094 -15.335938 3.785156 -14.042969 3.71875 -13.878906 C 3.363281 -13.328125 3.074219 -12.746094 2.78125 -12.164062 C 2.101562 -10.839844 1.488281 -9.480469 1.132812 -7.992188 C 0.777344 -6.535156 0.292969 -5.113281 0.0976562 -3.589844 C 0.03125 -2.945312 -0.03125 -2.296875 0.03125 -1.648438 C 0.03125 -1.488281 0.484375 -0.0664062 0.484375 -0.0664062 L 0.484375 -0.128906 C 0.582031 0.128906 0.679688 0.421875 0.839844 0.742188 C 0.777344 0.613281 0.550781 0.324219 0.519531 0.160156 C 0.550781 0.421875 0.96875 0.9375 1.003906 1.003906 C 2.039062 2.878906 3.851562 4.757812 6.179688 4.53125 C 9.996094 4.140625 12.714844 -0.0976562 14.398438 -3.171875 C 15.398438 -4.980469 16.304688 -6.890625 16.792969 -8.929688 C 17.148438 -10.386719 17.632812 -12.132812 16.886719 -13.589844 C 16.597656 -14.136719 14.914062 -15.757812 14.65625 -14.429688 Z M 1.84375 -8.054688 C 1.328125 -6.601562 0.742188 -4.980469 0.519531 -3.429688 C 0.710938 -4.980469 1.164062 -6.535156 1.648438 -7.992188 C 2.394531 -10.289062 3.492188 -12.585938 4.789062 -14.625 C 6.082031 -16.628906 7.472656 -18.570312 9.058594 -20.351562 C 9.445312 -20.738281 9.835938 -21.191406 10.289062 -21.578125 C 9.804688 -21.125 9.351562 -20.609375 8.960938 -20.1875 C 7.441406 -18.472656 6.246094 -16.46875 5.046875 -14.527344 C 3.816406 -12.488281 2.621094 -10.320312 1.84375 -8.054688 Z M 14.558594 -22.066406 C 15.011719 -22 15.140625 -21.613281 15.109375 -21.160156 C 15.171875 -21.804688 14.945312 -22.292969 14.136719 -22.03125 C 14.269531 -22.066406 14.398438 -22.066406 14.558594 -22.066406 Z M 14.753906 -19.832031 C 14.914062 -20.1875 15.078125 -20.609375 15.109375 -21.0625 C 15.042969 -20.640625 14.882812 -20.1875 14.753906 -19.832031 Z M 7.894531 -14.816406 L 7.863281 -14.785156 L 7.894531 -14.816406 L 7.925781 -14.851562 L 7.796875 -14.625 L 7.148438 -13.554688 L 7.863281 -14.785156 C 7.828125 -14.753906 7.828125 -14.71875 7.828125 -14.71875 C 7.828125 -14.753906 7.863281 -14.785156 7.894531 -14.816406 Z M 14.65625 -19.542969 L 14.496094 -19.21875 C 14.527344 -19.25 14.589844 -19.347656 14.65625 -19.542969 Z M 7.957031 -14.914062 L 7.894531 -14.851562 L 8.121094 -15.238281 Z M 13.652344 -21.871094 L 13.523438 -21.804688 C 13.554688 -21.804688 13.589844 -21.804688 13.652344 -21.871094 Z M 7.054688 -13.328125 L 6.957031 -13.199219 Z M 7.054688 -13.328125 "/></g></g></g><g fill="#dfdbdb" fill-opacity="1"><g transform="translate(121.39607, 42.14301)"><g><path d="M 18.3125 -8.023438 C 18.117188 -7.992188 16.433594 -7.472656 16.53125 -7.214844 C 16.53125 -7.183594 16.597656 -7.148438 16.628906 -7.148438 C 16.078125 -6.921875 15.367188 -6.890625 14.816406 -6.535156 C 14.203125 -6.113281 13.621094 -5.695312 12.972656 -5.339844 C 13.554688 -6.339844 14.105469 -7.410156 14.460938 -8.476562 C 14.589844 -8.863281 15.335938 -11.257812 14.851562 -11.519531 C 14.785156 -11.550781 14.753906 -11.257812 14.71875 -11.097656 C 14.753906 -12.390625 14.332031 -14.363281 12.585938 -14.496094 C 11.519531 -14.558594 10.515625 -13.230469 9.933594 -12.519531 C 8.605469 -10.839844 7.441406 -9.027344 6.277344 -7.28125 C 5.953125 -6.792969 2.71875 -1.554688 2.71875 -1.554688 C 2.71875 -1.554688 2.945312 -1.875 3.234375 -2.296875 C 2.945312 -1.8125 2.652344 -1.292969 2.394531 -0.777344 C 2.523438 -1.261719 3.753906 -5.113281 4.53125 -7.375 C 4.59375 -7.472656 4.625 -7.601562 4.660156 -7.699219 L 4.851562 -8.25 L 4.851562 -8.21875 C 5.144531 -9.089844 5.433594 -9.964844 5.695312 -10.871094 C 5.695312 -10.773438 5.566406 -10.289062 5.597656 -10.289062 C 5.792969 -10.257812 6.050781 -11.613281 5.921875 -11.613281 L 5.824219 -11.453125 C 5.921875 -11.9375 6.082031 -12.164062 5.792969 -12.714844 C 5.566406 -13.199219 5.175781 -13.652344 4.625 -13.78125 C 3.558594 -14.074219 3.042969 -13.199219 3.105469 -12.359375 C 3.105469 -12.230469 3.269531 -12.164062 3.269531 -12.035156 C 3.269531 -11.875 3.105469 -11.582031 3.074219 -11.453125 C 2.847656 -10.773438 2.683594 -10.125 2.425781 -9.480469 C 2.296875 -9.125 1.101562 -5.757812 1.101562 -5.757812 C 1.164062 -5.792969 1.195312 -5.855469 1.230469 -5.921875 C 1.132812 -5.628906 1.035156 -5.339844 0.90625 -5.046875 C 0.875 -5.078125 1.003906 -5.304688 0.9375 -5.304688 C 0.613281 -5.371094 -0.195312 -2.652344 -0.257812 -2.394531 C -0.386719 -1.78125 -0.550781 -1.195312 -0.777344 -0.582031 C -0.875 -0.257812 -1.003906 0.0664062 -1.101562 0.421875 C -1.101562 0.453125 -1.261719 1.230469 -1.101562 0.9375 C -1.132812 1.035156 -1.164062 1.101562 -1.164062 1.164062 C -1.164062 1.132812 -1.195312 1.101562 -1.195312 1.066406 C -1.292969 1.101562 -1.359375 1.78125 -1.359375 1.8125 C -1.488281 2.167969 -1.648438 2.425781 -1.8125 2.75 C -2.230469 3.785156 -2.457031 4.917969 -2.621094 6.019531 C -2.878906 7.699219 -3.65625 10.222656 -2.816406 11.777344 C -2.523438 12.328125 -1.617188 13.457031 -0.90625 12.78125 C -0.582031 12.457031 -0.582031 11.710938 -0.550781 11.324219 C -0.355469 10.257812 -0.195312 9.15625 0.03125 8.089844 L 0.324219 6.601562 C 0.355469 6.535156 0.613281 5.339844 0.519531 5.371094 C 0.453125 5.433594 0.386719 5.53125 0.355469 5.628906 C 0.519531 5.113281 0.742188 4.625 0.9375 4.078125 C 1.195312 3.300781 1.390625 2.554688 1.78125 1.84375 C 2.230469 1.132812 2.621094 0.355469 3.042969 -0.355469 C 3.363281 -0.9375 3.65625 -1.683594 4.011719 -2.167969 C 4.109375 -2.296875 4.304688 -2.363281 4.464844 -2.492188 C 4.789062 -2.847656 5.015625 -3.332031 5.273438 -3.71875 C 5.757812 -4.496094 6.179688 -5.273438 6.695312 -5.984375 C 6.921875 -6.308594 9.511719 -9.933594 9.769531 -10.160156 C 9.707031 -10.125 9.640625 -10.09375 9.578125 -10.03125 C 9.835938 -10.351562 10.125 -10.644531 10.386719 -10.902344 C 10.417969 -10.871094 10.191406 -10.675781 10.222656 -10.644531 C 10.289062 -10.613281 11.777344 -11.777344 12.035156 -11.808594 C 12.746094 -11.9375 12.488281 -10.578125 12.390625 -10.222656 C 12.230469 -9.480469 11.808594 -8.769531 11.453125 -8.121094 C 11.257812 -7.765625 11.066406 -7.441406 10.902344 -7.085938 C 10.871094 -7.054688 10.613281 -6.4375 10.707031 -6.503906 L 10.515625 -6.210938 C 10.578125 -6.308594 10.613281 -6.4375 10.613281 -6.4375 C 10.480469 -6.4375 10.320312 -5.886719 10.289062 -5.792969 C 10.09375 -5.46875 9.835938 -5.207031 9.578125 -4.949219 C 8.898438 -4.171875 8.28125 -3.363281 7.601562 -2.621094 C 7.085938 -2.070312 6.40625 -1.101562 5.628906 -0.90625 C 5.078125 -0.777344 4.660156 -1.066406 4.949219 -0.195312 C 5.144531 0.421875 5.855469 1.84375 6.632812 1.84375 C 7.34375 1.84375 8.21875 0.777344 8.636719 0.324219 C 9.125 -0.226562 9.671875 -0.742188 10.191406 -1.328125 C 10.320312 -1.519531 11.808594 -3.300781 12.035156 -3.398438 L 12.003906 -3.398438 C 12.328125 -3.558594 12.648438 -3.429688 13.101562 -3.753906 C 13.363281 -3.945312 13.492188 -4.140625 13.78125 -4.335938 C 14.007812 -4.464844 14.105469 -4.625 14.203125 -4.722656 C 14.203125 -4.722656 14.203125 -4.691406 14.234375 -4.691406 C 14.558594 -5.015625 15.011719 -4.917969 15.433594 -5.207031 C 15.949219 -5.566406 16.597656 -6.019531 17.050781 -6.4375 C 17.632812 -6.957031 18.441406 -7.246094 18.699219 -8.121094 C 18.570312 -8.089844 18.410156 -8.089844 18.3125 -8.023438 Z M 1.746094 -4.722656 L 1.746094 -4.691406 C 1.714844 -4.269531 1.421875 -3.785156 1.261719 -3.398438 C 1.035156 -2.78125 0.839844 -2.167969 0.648438 -1.554688 C 0.226562 -0.257812 -0.257812 1.035156 -0.777344 2.265625 C -1.195312 3.300781 -1.585938 4.433594 -1.875 5.566406 C -1.519531 3.980469 -0.9375 2.425781 -0.484375 0.9375 C -0.0664062 -0.421875 0.582031 -1.746094 1.101562 -3.074219 C 1.164062 -3.234375 1.78125 -4.53125 1.714844 -4.789062 C 1.746094 -4.757812 1.746094 -4.722656 1.746094 -4.722656 Z M 3.171875 -3.753906 C 3.074219 -3.363281 2.976562 -3.007812 2.847656 -2.683594 C 2.945312 -3.007812 3.042969 -3.398438 3.171875 -3.753906 Z M 7.601562 -9.058594 L 6.988281 -8.152344 C 7.183594 -8.445312 7.375 -8.769531 7.601562 -9.058594 Z M 12.875 -5.144531 C 12.910156 -5.242188 13.070312 -5.273438 13.167969 -5.339844 Z M 5.144531 -8.929688 C 5.113281 -8.898438 5.078125 -8.800781 5.046875 -8.671875 Z M 4.917969 -8.378906 L 5.046875 -8.671875 Z M 6.601562 -7.570312 L 6.601562 -7.601562 C 6.632812 -7.636719 6.632812 -7.636719 6.632812 -7.667969 C 6.664062 -7.699219 6.632812 -7.636719 6.601562 -7.570312 Z M 4.917969 -8.378906 C 4.917969 -8.316406 4.886719 -8.28125 4.851562 -8.25 Z M -1.941406 5.855469 C -1.941406 5.824219 -1.941406 5.824219 -1.910156 5.792969 C -1.910156 5.824219 -1.910156 5.824219 -1.941406 5.855469 Z M 3.363281 -4.140625 C 3.363281 -4.109375 3.332031 -4.109375 3.332031 -4.109375 Z M 3.363281 -4.140625 "/></g></g></g><g fill="#dfdbdb" fill-opacity="1"><g transform="translate(137.700728, 42.14301)"><g><path d="M 15.304688 -7.894531 C 15.207031 -8.507812 13.71875 -6.792969 13.652344 -6.730469 C 12.714844 -5.726562 11.808594 -4.625 10.707031 -3.753906 C 10.191406 -3.363281 9.964844 -3.136719 9.996094 -3.914062 C 10.03125 -4.59375 10.289062 -5.304688 10.480469 -5.921875 C 10.578125 -6.246094 11.226562 -7.472656 11.03125 -7.699219 C 11 -7.730469 10.933594 -7.636719 10.871094 -7.570312 C 11.324219 -8.476562 12.421875 -10.03125 10.96875 -10.449219 C 9.316406 -10.902344 8.476562 -9.125 7.765625 -8.054688 C 7.085938 -7.085938 6.4375 -6.148438 5.660156 -5.273438 C 5.078125 -4.59375 4.171875 -3.300781 3.234375 -3.042969 C 2.363281 -2.75 2.945312 -4.171875 3.074219 -4.660156 C 3.171875 -4.917969 4.335938 -7.925781 4.398438 -7.894531 C 4.335938 -7.894531 4.269531 -7.863281 4.207031 -7.765625 C 4.5625 -8.542969 4.949219 -9.316406 5.371094 -10.0625 C 5.273438 -9.867188 5.175781 -9.542969 5.175781 -9.542969 C 5.339844 -9.511719 6.113281 -11.097656 6.050781 -11.097656 C 5.984375 -11.066406 5.921875 -11 5.855469 -10.902344 C 6.113281 -11.355469 6.4375 -11.582031 5.855469 -12.035156 C 5.273438 -12.488281 4.238281 -12.585938 3.65625 -12.066406 C 2.945312 -11.484375 2.492188 -10.449219 2.136719 -9.640625 C 1.910156 -9.1875 1.519531 -8.929688 1.292969 -8.410156 C 0.839844 -7.410156 0.582031 -6.40625 0.324219 -5.371094 C 0.0664062 -4.367188 -0.0976562 -3.332031 0.0664062 -2.296875 C 0.160156 -1.84375 0.324219 -1.328125 0.679688 -1.003906 C 0.777344 -0.9375 1.714844 -0.582031 1.648438 -0.808594 C 1.585938 -0.808594 1.519531 -0.808594 1.488281 -0.839844 C 1.84375 -0.839844 2.199219 -1.003906 2.523438 -1.195312 C 2.554688 -1.164062 2.265625 -1.035156 2.265625 -1.003906 C 2.589844 -0.582031 5.046875 -3.074219 5.273438 -3.363281 C 6.082031 -4.398438 6.890625 -5.402344 7.730469 -6.40625 C 7.3125 -5.273438 6.601562 -3.71875 7.28125 -2.492188 C 7.667969 -1.84375 8.410156 -1.488281 9.125 -1.554688 C 10.644531 -1.648438 12.003906 -3.300781 12.941406 -4.304688 C 13.554688 -4.980469 14.171875 -5.695312 14.625 -6.46875 C 14.816406 -6.792969 15.335938 -7.507812 15.304688 -7.894531 Z M 10.386719 -7.246094 C 10.320312 -7.054688 10.289062 -6.792969 10.191406 -6.632812 C 10.191406 -6.601562 10.160156 -6.566406 10.125 -6.535156 C 10.160156 -6.566406 10.160156 -6.601562 10.160156 -6.632812 C 9.898438 -7.441406 10.871094 -8.476562 11.195312 -9.285156 C 10.933594 -8.574219 10.613281 -7.925781 10.386719 -7.246094 Z M 2.683594 -3.074219 C 2.492188 -4.011719 3.171875 -5.304688 3.527344 -6.179688 C 3.074219 -4.917969 2.621094 -3.363281 2.683594 -3.074219 Z M 7.730469 -6.246094 C 7.730469 -6.375 7.765625 -6.46875 7.863281 -6.535156 C 7.796875 -6.4375 7.765625 -6.339844 7.730469 -6.246094 Z M 7.730469 -6.246094 "/></g></g></g><g fill="#dfdbdb" fill-opacity="1"><g transform="translate(150.640931, 42.14301)"><g><path d="M 12.941406 -8.25 C 12.488281 -7.765625 12.195312 -6.957031 11.839844 -6.375 C 11.292969 -5.433594 10.742188 -4.53125 10.160156 -3.625 C 9.058594 -1.875 7.957031 -0.0976562 6.632812 1.488281 C 6.082031 2.167969 4.917969 3.816406 3.816406 3.6875 C 3.007812 3.558594 3.007812 2.167969 3.007812 1.554688 C 3.007812 1.035156 3.042969 0.519531 3.105469 0.03125 C 3.136719 -0.257812 3.398438 -1.230469 3.234375 -1.488281 L 2.976562 -0.519531 C 3.007812 -0.90625 3.074219 -1.328125 3.171875 -1.714844 C 3.136719 -1.78125 3.429688 -2.683594 3.492188 -2.976562 C 3.65625 -3.625 3.816406 -4.269531 4.011719 -4.917969 C 4.171875 -5.566406 4.335938 -6.179688 4.53125 -6.792969 C 4.691406 -7.375 4.917969 -7.667969 5.273438 -8.121094 C 6.730469 -9.933594 8.054688 -11.90625 9.285156 -13.878906 C 9.738281 -14.625 10.03125 -15.269531 10.578125 -15.886719 C 11.386719 -16.726562 11.9375 -17.988281 12.457031 -19.023438 C 13.328125 -20.707031 14.496094 -23.035156 14.300781 -25.007812 L 14.300781 -25.171875 L 14.269531 -25.203125 C 14.074219 -26.464844 12.910156 -27.953125 11.484375 -27.5 C 10.742188 -27.273438 10.191406 -26.496094 9.738281 -25.945312 L 8.996094 -24.945312 C 8.832031 -24.75 8.605469 -24.265625 8.445312 -24.007812 L 8.476562 -24.039062 L 7.441406 -22.257812 L 7.699219 -22.808594 C 7.539062 -22.839844 6.828125 -21.449219 6.730469 -21.289062 C 6.375 -20.671875 6.050781 -20.058594 5.757812 -19.445312 C 5.113281 -18.148438 4.464844 -16.824219 4.042969 -15.433594 C 3.589844 -14.042969 3.074219 -12.683594 2.589844 -11.292969 C 2.328125 -10.546875 2.070312 -9.769531 1.84375 -9.027344 C 1.648438 -8.410156 1.195312 -7.410156 1.292969 -6.761719 L 1.390625 -6.761719 C 1.292969 -6.535156 1.230469 -6.308594 1.164062 -6.082031 C 1.195312 -6.277344 1.195312 -6.503906 1.230469 -6.566406 C 1.066406 -6.339844 1.101562 -5.566406 1.066406 -5.5 C 0.648438 -3.753906 0.160156 -2.007812 0.03125 -0.195312 C -0.0664062 1.519531 -0.0664062 3.785156 1.292969 5.046875 C 2.816406 6.4375 4.5625 5.5 5.824219 4.304688 C 7.3125 2.847656 8.574219 1.132812 9.738281 -0.550781 C 10.804688 -2.101562 11.648438 -3.753906 12.617188 -5.304688 C 13.007812 -5.953125 13.425781 -6.601562 13.621094 -7.3125 C 13.75 -7.828125 13.683594 -9.027344 12.941406 -8.25 Z M 8.898438 -19.832031 C 9.542969 -21.386719 10.191406 -22.96875 11.097656 -24.425781 C 11.324219 -24.78125 12.78125 -26.722656 12.714844 -25.007812 L 12.714844 -24.976562 C 12.648438 -23.164062 11.484375 -21.257812 10.707031 -19.703125 L 9.351562 -17.179688 C 8.898438 -16.402344 8.121094 -15.433594 7.863281 -14.589844 C 8.054688 -15.109375 8.636719 -15.851562 8.929688 -16.339844 C 9.414062 -17.148438 9.835938 -17.957031 10.289062 -18.765625 C 11.03125 -20.1875 11.839844 -21.675781 12.390625 -23.230469 C 10.933594 -18.894531 8.21875 -14.851562 5.824219 -11 C 6.761719 -13.847656 7.699219 -16.953125 8.898438 -19.832031 Z M 7.863281 -22.097656 C 8.183594 -22.710938 8.769531 -23.230469 9.089844 -23.8125 C 8.410156 -22.453125 7.570312 -21.222656 6.859375 -19.929688 C 6.859375 -19.960938 6.859375 -20.027344 6.890625 -20.058594 C 7.183594 -20.769531 7.507812 -21.417969 7.863281 -22.097656 Z M 1.746094 -5.371094 C 1.714844 -5.304688 1.714844 -5.273438 1.714844 -5.273438 C 1.328125 -4.367188 1.292969 -3.136719 1.101562 -2.167969 C 1.066406 -1.941406 1.003906 -1.746094 1.003906 -1.519531 L 1.003906 -1.617188 L 0.90625 -0.582031 C 0.96875 -1.746094 1.101562 -2.945312 1.328125 -4.078125 L 1.328125 -4.042969 C 1.421875 -4.789062 1.585938 -5.46875 1.714844 -5.46875 C 1.78125 -5.5 1.78125 -5.402344 1.746094 -5.371094 Z M 1.746094 -5.371094 "/></g></g></g><g fill="#dfdbdb" fill-opacity="1"><g transform="translate(162.093013, 42.14301)"><g><path d="M 12.390625 -7.992188 C 12.390625 -7.957031 12.390625 -7.957031 12.359375 -7.992188 L 12.359375 -8.023438 C 11.839844 -8.898438 11.160156 -7.699219 10.871094 -7.28125 C 10.320312 -6.535156 9.804688 -5.824219 9.21875 -5.144531 C 8.734375 -4.5625 8.21875 -3.980469 7.828125 -3.363281 C 7.828125 -3.300781 7.765625 -3.136719 7.765625 -3.136719 C 7.636719 -2.945312 7.441406 -2.78125 7.28125 -2.589844 C 6.988281 -2.296875 6.695312 -1.972656 6.375 -1.683594 C 5.886719 -1.230469 3.171875 1.328125 2.816406 -0.324219 C 2.621094 -1.132812 2.878906 -2.136719 3.042969 -2.910156 C 3.136719 -3.332031 3.234375 -3.71875 3.300781 -4.140625 C 3.363281 -4.464844 3.269531 -4.789062 3.429688 -5.113281 C 3.527344 -5.304688 3.558594 -5.273438 3.785156 -5.339844 L 4.335938 -5.53125 C 4.691406 -5.660156 5.046875 -5.792969 5.371094 -5.984375 C 5.855469 -6.277344 6.308594 -6.632812 6.730469 -6.988281 C 7.730469 -7.828125 8.800781 -8.832031 9.21875 -10.09375 C 9.445312 -10.804688 9.480469 -11.582031 9.027344 -12.195312 C 8.605469 -12.746094 7.894531 -13.039062 7.246094 -13.167969 C 5.5 -13.492188 4.171875 -12.488281 3.171875 -11.160156 C 1.941406 -9.640625 1.066406 -7.765625 0.648438 -5.855469 C 0.421875 -4.917969 0.292969 -3.980469 0.128906 -3.007812 C -0.03125 -2.039062 -0.128906 -1.132812 0.386719 -0.226562 C 0.355469 -0.550781 0.292969 -0.839844 0.292969 -1.132812 C 0.292969 -1.292969 0.355469 -1.457031 0.355469 -1.585938 C 0.355469 -1.648438 0.292969 -1.84375 0.292969 -1.941406 C 0.292969 -2.230469 0.355469 -2.457031 0.421875 -2.75 C 0.453125 -3.042969 0.421875 -3.332031 0.453125 -3.625 C 0.484375 -3.945312 0.613281 -4.207031 0.742188 -4.496094 C 0.839844 -4.757812 0.875 -4.980469 0.96875 -5.242188 C 1.066406 -5.46875 1.132812 -5.726562 1.230469 -5.984375 C 1.261719 -6.148438 1.421875 -6.339844 1.519531 -6.535156 C 1.421875 -6.246094 1.230469 -5.984375 1.164062 -5.726562 C 1.066406 -5.339844 1.132812 -4.917969 1.101562 -4.53125 C 1.035156 -4.109375 0.90625 -3.6875 0.839844 -3.234375 C 0.777344 -2.816406 0.582031 -2.425781 0.519531 -2.007812 C 0.453125 -1.617188 0.324219 -1.328125 0.355469 -0.9375 C 0.355469 -0.710938 0.386719 -0.484375 0.421875 -0.292969 C 0.453125 -0.03125 0.613281 0.128906 0.777344 0.324219 C 1.328125 0.96875 2.070312 1.488281 2.910156 1.714844 C 3.492188 1.875 4.011719 1.84375 4.5625 1.554688 C 5.339844 1.132812 6.019531 0.484375 6.601562 -0.128906 C 7.148438 -0.742188 7.570312 -1.421875 8.054688 -2.070312 C 8.507812 -2.652344 9.058594 -3.203125 9.511719 -3.785156 L 11.257812 -6.050781 L 12.261719 -7.375 C 12.421875 -7.570312 12.519531 -7.730469 12.390625 -7.992188 Z M 4.367188 -7.636719 C 4.398438 -7.699219 4.398438 -7.730469 4.398438 -7.730469 C 4.886719 -8.769531 5.242188 -9.867188 5.921875 -10.871094 L 6.503906 -11.648438 C 6.632812 -11.808594 6.859375 -12.101562 7.085938 -12.164062 C 7.570312 -12.261719 7.699219 -11.421875 7.667969 -11.097656 L 7.539062 -10.417969 C 7.507812 -10.222656 7.570312 -10.09375 7.539062 -9.933594 C 7.472656 -9.738281 7.3125 -9.640625 7.214844 -9.480469 L 6.664062 -8.769531 C 5.921875 -7.894531 4.980469 -7.148438 3.945312 -6.601562 C 4.109375 -6.957031 4.207031 -7.3125 4.367188 -7.636719 Z M 4.367188 -7.636719 "/></g></g></g><g fill="#dfdbdb" fill-opacity="1"><g transform="translate(172.15402, 42.14301)"><g><path d="M 13.394531 -7.699219 C 13.230469 -8.476562 12.78125 -7.957031 12.585938 -7.667969 C 12.132812 -7.117188 11.421875 -6.601562 10.871094 -6.082031 C 10.125 -5.433594 9.382812 -4.757812 8.605469 -4.140625 C 8.21875 -3.816406 7.730469 -3.363281 7.246094 -3.203125 C 7.183594 -3.171875 6.957031 -3.136719 6.957031 -3.105469 L 6.921875 -3.136719 C 6.921875 -3.136719 6.890625 -3.65625 6.921875 -3.6875 C 6.957031 -4.109375 7.085938 -4.53125 7.214844 -4.917969 C 7.246094 -4.980469 7.601562 -6.082031 7.539062 -6.082031 L 7.375 -5.886719 C 7.570312 -6.277344 7.828125 -6.664062 8.054688 -7.085938 C 7.539062 -6.601562 7.183594 -6.050781 6.921875 -5.371094 C 6.792969 -5.046875 6.4375 -4.464844 6.375 -3.980469 C 6.4375 -4.691406 6.921875 -5.628906 7.148438 -6.050781 C 7.472656 -6.730469 7.828125 -7.507812 8.25 -8.152344 C 9.027344 -9.316406 10.707031 -10.386719 10.191406 -12.003906 C 9.738281 -13.523438 8.542969 -13.554688 7.601562 -12.683594 C 7.148438 -12.261719 3.300781 -7.34375 3.398438 -7.28125 C 3.398438 -7.28125 3.71875 -7.667969 4.140625 -8.21875 L 2.230469 -5.433594 C 2.199219 -5.433594 2.554688 -5.984375 2.523438 -6.019531 C 2.492188 -6.050781 2.265625 -5.824219 2.230469 -5.695312 C 2.296875 -6.375 2.523438 -7.054688 2.589844 -7.730469 C 2.621094 -7.992188 2.589844 -8.183594 2.652344 -8.445312 C 2.78125 -8.863281 2.910156 -9.316406 3.105469 -9.671875 C 3.234375 -9.933594 3.492188 -10.160156 3.558594 -10.417969 C 3.6875 -10.839844 3.65625 -11 3.945312 -11.355469 C 4.207031 -11.679688 4.59375 -12.003906 4.820312 -12.292969 C 5.371094 -13.101562 4.433594 -13.652344 3.914062 -13.75 C 3.492188 -13.816406 3.074219 -13.847656 2.683594 -13.621094 C 2.265625 -13.363281 2.363281 -13.136719 2.265625 -12.78125 C 2.167969 -12.328125 1.84375 -11.808594 1.683594 -11.386719 C 1.421875 -10.707031 1.195312 -10.03125 0.96875 -9.351562 C 0.710938 -8.671875 0.453125 -8.023438 0.257812 -7.34375 C 0.0976562 -6.792969 0.128906 -6.277344 0.0664062 -5.757812 C 0 -5.175781 -0.0976562 -4.789062 0.195312 -4.269531 C 0.519531 -3.71875 1.390625 -2.878906 1.972656 -3.589844 L 2.101562 -3.332031 C 2.652344 -4.53125 3.492188 -5.597656 4.171875 -6.761719 C 4.464844 -7.28125 4.980469 -7.636719 5.402344 -8.183594 C 5.984375 -8.960938 6.503906 -9.738281 7.148438 -10.480469 C 7.054688 -10.320312 6.632812 -9.578125 6.664062 -9.542969 C 6.730469 -9.578125 6.761719 -9.640625 6.828125 -9.707031 L 6.375 -8.800781 C 6.339844 -8.832031 6.503906 -9.058594 6.4375 -9.058594 C 6.210938 -9.125 5.53125 -7.3125 5.46875 -7.148438 C 5.242188 -6.4375 5.207031 -5.792969 5.144531 -5.046875 C 5.113281 -4.691406 5.046875 -4.335938 5.046875 -3.980469 C 5.046875 -3.625 5.078125 -3.269531 5.242188 -2.910156 C 5.339844 -2.71875 5.46875 -2.457031 5.628906 -2.296875 C 5.660156 -2.296875 6.019531 -1.972656 5.855469 -2.230469 L 6.050781 -2.039062 L 5.953125 -2.101562 C 5.921875 -1.941406 7.117188 -1.292969 7.3125 -1.230469 C 8.21875 -0.9375 9.1875 -1.972656 9.769531 -2.589844 C 10.546875 -3.429688 11.195312 -4.398438 11.90625 -5.304688 C 12.292969 -5.824219 13.523438 -6.921875 13.394531 -7.699219 Z M 13.394531 -7.699219 "/></g></g></g><g fill="#dfdbdb" fill-opacity="1"><g transform="translate(183.185545, 42.14301)"><g><path d="M 13.136719 -16.824219 C 13.101562 -17.277344 12.617188 -16.921875 12.359375 -16.921875 C 11.066406 -16.855469 9.769531 -16.855469 8.507812 -16.792969 C 8.507812 -16.824219 8.574219 -16.953125 8.671875 -17.148438 C 8.542969 -16.921875 8.445312 -16.792969 8.347656 -16.792969 C 9.316406 -18.765625 10.351562 -20.738281 11.582031 -22.550781 C 11.550781 -22.484375 11.066406 -21.675781 11.097656 -21.675781 C 11.195312 -21.644531 12.390625 -23.292969 12.421875 -23.519531 C 12.421875 -23.648438 12.132812 -23.328125 12.132812 -23.359375 C 12.328125 -23.554688 12.648438 -23.714844 12.746094 -23.972656 C 12.972656 -24.621094 12.292969 -24.910156 11.808594 -25.007812 C 10.804688 -25.203125 9.671875 -25.074219 9.027344 -24.234375 C 8.410156 -23.488281 7.957031 -22.613281 7.570312 -21.742188 C 7.375 -21.351562 7.117188 -21.257812 6.859375 -20.898438 C 6.46875 -20.351562 6.210938 -19.703125 5.921875 -19.089844 C 5.660156 -18.539062 5.402344 -17.957031 5.175781 -17.375 C 5.046875 -17.082031 5.046875 -16.855469 4.757812 -16.757812 C 4.464844 -16.628906 3.914062 -16.726562 3.589844 -16.695312 C 2.328125 -16.53125 1.101562 -16.597656 -0.160156 -16.46875 C -0.808594 -16.433594 -1.457031 -16.433594 -2.070312 -16.207031 C -2.199219 -16.175781 -2.910156 -16.015625 -2.976562 -15.917969 C -3.171875 -15.5625 -2.394531 -15.53125 -2.230469 -15.496094 C -1.003906 -15.335938 0.550781 -15.207031 1.78125 -15.433594 C 2.621094 -15.59375 3.492188 -15.53125 4.398438 -15.59375 C 3.945312 -14.625 3.589844 -13.589844 3.234375 -12.554688 L 2.847656 -11.421875 C 2.71875 -11.066406 2.296875 -10.386719 2.296875 -9.996094 C 2.296875 -9.933594 2.394531 -10.09375 2.457031 -10.257812 C 2.296875 -9.769531 2.101562 -9.285156 1.972656 -8.800781 C 1.972656 -8.832031 2.070312 -9.21875 2.039062 -9.21875 C 1.875 -9.21875 1.230469 -7.246094 1.164062 -7.085938 C 0.839844 -6.113281 0.484375 -5.144531 0.324219 -4.109375 C 0.128906 -3.074219 -0.128906 -2.070312 -0.355469 -1.066406 C -0.484375 -0.550781 -0.613281 -0.0664062 -0.679688 0.453125 C -0.742188 0.710938 -0.808594 1.003906 -0.808594 1.261719 C -0.808594 1.328125 -0.808594 1.746094 -0.742188 1.617188 L -0.808594 2.265625 L -0.808594 1.78125 C -1.003906 2.007812 -0.808594 3.042969 -0.777344 3.234375 C -0.648438 3.882812 -0.324219 4.464844 0.257812 4.851562 C 0.777344 5.242188 1.585938 5.597656 2.199219 5.304688 C 3.007812 4.917969 3.6875 4.011719 4.207031 3.363281 C 5.339844 2.039062 6.375 0.648438 7.410156 -0.742188 C 8.347656 -2.039062 9.316406 -3.300781 10.125 -4.660156 C 10.578125 -5.433594 11.453125 -6.148438 11.746094 -7.019531 C 11.90625 -7.441406 11.808594 -7.957031 11.292969 -7.863281 C 10.871094 -7.765625 10.289062 -6.632812 10.03125 -6.308594 C 8.863281 -4.851562 7.765625 -3.363281 6.601562 -1.910156 L 4.722656 0.386719 C 4.433594 0.710938 4.140625 1.066406 3.816406 1.390625 C 3.6875 1.554688 2.878906 2.199219 2.910156 2.394531 C 2.910156 2.457031 3.269531 2.167969 3.398438 2.070312 C 3.234375 2.265625 3.042969 2.425781 2.878906 2.589844 C 2.910156 2.554688 2.230469 2.945312 2.136719 2.878906 C 1.519531 2.621094 2.070312 0.742188 2.167969 0.292969 C 2.75 -2.328125 3.625 -4.980469 4.496094 -7.507812 C 5.015625 -8.898438 5.53125 -10.222656 6.113281 -11.582031 C 6.40625 -12.261719 6.695312 -12.972656 7.019531 -13.652344 L 7.472656 -14.882812 L 7.117188 -14.171875 C 7.34375 -14.753906 7.667969 -15.625 7.863281 -15.660156 L 7.765625 -15.464844 C 7.828125 -15.5625 7.894531 -15.625 7.957031 -15.660156 C 8.316406 -15.886719 9.21875 -15.660156 9.640625 -15.660156 C 9.933594 -15.660156 10.289062 -15.625 10.578125 -15.722656 C 10.773438 -15.789062 10.707031 -15.886719 10.933594 -15.949219 C 11.324219 -16.015625 11.808594 -15.757812 12.230469 -15.886719 C 12.617188 -15.980469 13.167969 -16.339844 13.136719 -16.792969 Z M 6.988281 -14.945312 C 5.53125 -11.875 4.433594 -8.574219 3.269531 -5.371094 C 2.71875 -3.914062 2.199219 -2.394531 1.84375 -0.875 L 1.683594 -0.257812 C 1.910156 -1.421875 2.167969 -2.554688 2.492188 -3.6875 C 3.203125 -6.179688 4.109375 -8.636719 5.175781 -11 C 6.988281 -15.042969 8.605469 -19.378906 11.195312 -23.035156 C 9.445312 -20.542969 8.28125 -17.695312 6.988281 -14.945312 Z M 9.125 -18.148438 L 9.898438 -19.636719 C 9.738281 -19.605469 9.445312 -18.894531 9.125 -18.148438 Z M 5.792969 -11.097656 C 5.566406 -10.480469 5.304688 -9.898438 5.046875 -9.316406 C 5.304688 -9.933594 5.53125 -10.578125 5.824219 -11.226562 C 5.792969 -11.160156 5.792969 -11.128906 5.792969 -11.097656 Z M 8.703125 -17.210938 L 9.027344 -17.921875 C 8.929688 -17.664062 8.800781 -17.40625 8.703125 -17.210938 Z M 1.648438 3.171875 C 1.617188 3.171875 1.585938 3.136719 1.554688 3.105469 Z M 1.648438 3.171875 "/></g></g></g><g fill="#a6a6a6" fill-opacity="1"><g transform="translate(138.964329, 59.097355)"><g><path d="M 4.625 -1.375 L 4.117188 -1.375 C 3.957031 -1.085938 3.738281 -0.847656 3.460938 -0.675781 C 3.183594 -0.496094 2.871094 -0.410156 2.539062 -0.410156 C 2.042969 -0.410156 1.621094 -0.589844 1.269531 -0.960938 C 0.925781 -1.308594 0.761719 -1.738281 0.761719 -2.242188 C 0.761719 -2.746094 0.925781 -3.175781 1.269531 -3.535156 C 1.429688 -3.699219 1.621094 -3.832031 1.839844 -3.929688 C 2.050781 -4.03125 2.261719 -4.082031 2.476562 -4.082031 C 2.679688 -4.082031 2.859375 -4.054688 3.015625 -4.007812 C 3.5 -3.863281 3.863281 -3.574219 4.109375 -3.128906 L 4.617188 -3.128906 C 4.445312 -3.554688 4.175781 -3.898438 3.796875 -4.160156 C 3.414062 -4.425781 2.996094 -4.558594 2.539062 -4.558594 C 1.914062 -4.558594 1.382812 -4.328125 0.945312 -3.871094 C 0.742188 -3.660156 0.582031 -3.40625 0.46875 -3.128906 C 0.351562 -2.851562 0.296875 -2.554688 0.296875 -2.242188 C 0.296875 -1.609375 0.507812 -1.070312 0.945312 -0.621094 C 1.382812 -0.160156 1.914062 0.0664062 2.539062 0.0664062 C 2.996094 0.0664062 3.414062 -0.0664062 3.804688 -0.332031 C 4.183594 -0.59375 4.453125 -0.941406 4.625 -1.375 Z M 4.625 -1.375 "/></g></g></g><g fill="#a6a6a6" fill-opacity="1"><g transform="translate(144.747519, 59.097355)"><g><path d="M 1.222656 -1.652344 L 2.042969 -3.726562 L 2.859375 -1.652344 Z M 4.015625 0 L 2.042969 -4.808594 L 0.0664062 0 L 0.570312 0 L 1.050781 -1.222656 L 3.03125 -1.222656 L 3.511719 0 Z M 4.015625 0 "/></g></g></g><g fill="#a6a6a6" fill-opacity="1"><g transform="translate(149.789634, 59.097355)"><g><path d="M 3.433594 -1.25 C 3.433594 -1.566406 3.355469 -1.839844 3.203125 -2.050781 C 3.042969 -2.261719 2.832031 -2.410156 2.574219 -2.480469 C 2.726562 -2.546875 2.859375 -2.667969 2.957031 -2.84375 C 3.003906 -2.925781 3.035156 -3.003906 3.0625 -3.089844 C 3.089844 -3.175781 3.101562 -3.296875 3.101562 -3.449219 C 3.101562 -3.59375 3.0625 -3.746094 2.996094 -3.890625 C 2.800781 -4.292969 2.367188 -4.5 1.714844 -4.5 L 0.496094 -4.5 L 0.496094 0 L 1.871094 0 C 2.328125 0 2.691406 -0.0976562 2.972656 -0.3125 C 3.109375 -0.417969 3.222656 -0.554688 3.308594 -0.726562 C 3.386719 -0.894531 3.433594 -1.066406 3.433594 -1.25 Z M 2.640625 -3.375 C 2.640625 -3.128906 2.566406 -2.949219 2.421875 -2.832031 C 2.277344 -2.710938 2.085938 -2.652344 1.847656 -2.652344 L 0.960938 -2.652344 L 0.960938 -4.054688 L 1.714844 -4.054688 C 2.328125 -4.054688 2.640625 -3.824219 2.640625 -3.375 Z M 2.972656 -1.34375 C 2.972656 -1.070312 2.878906 -0.855469 2.691406 -0.6875 C 2.515625 -0.523438 2.28125 -0.441406 2.003906 -0.441406 L 0.960938 -0.441406 L 0.960938 -2.191406 L 2.078125 -2.191406 C 2.308594 -2.191406 2.515625 -2.109375 2.691406 -1.953125 C 2.773438 -1.878906 2.839844 -1.792969 2.890625 -1.695312 C 2.945312 -1.589844 2.972656 -1.476562 2.972656 -1.34375 Z M 2.972656 -1.34375 "/></g></g></g><g fill="#a6a6a6" fill-opacity="1"><g transform="translate(154.315643, 59.097355)"><g><path d="M 1.738281 -2.117188 C 2.324219 -1.976562 2.71875 -1.828125 2.929688 -1.652344 C 3.078125 -1.535156 3.148438 -1.382812 3.148438 -1.199219 C 3.148438 -1.011719 3.109375 -0.859375 3.03125 -0.753906 C 2.832031 -0.476562 2.476562 -0.335938 1.972656 -0.335938 C 1.269531 -0.335938 0.875 -0.574219 0.789062 -1.050781 L 0.246094 -1.050781 C 0.402344 -0.292969 0.980469 0.0859375 1.972656 0.0859375 C 2.414062 0.0859375 2.785156 -0.0078125 3.082031 -0.207031 C 3.441406 -0.4375 3.625 -0.78125 3.625 -1.230469 C 3.625 -1.601562 3.480469 -1.886719 3.1875 -2.085938 C 2.984375 -2.230469 2.652344 -2.363281 2.195312 -2.480469 C 1.734375 -2.601562 1.4375 -2.699219 1.296875 -2.773438 C 0.992188 -2.925781 0.839844 -3.136719 0.847656 -3.414062 C 0.847656 -3.558594 0.875 -3.683594 0.941406 -3.777344 C 1.113281 -4.035156 1.414062 -4.167969 1.851562 -4.167969 C 2.46875 -4.167969 2.820312 -3.96875 2.910156 -3.585938 L 3.414062 -3.585938 C 3.25 -4.234375 2.726562 -4.566406 1.851562 -4.566406 C 1.457031 -4.566406 1.105469 -4.460938 0.8125 -4.246094 C 0.515625 -4.035156 0.363281 -3.726562 0.363281 -3.300781 C 0.363281 -2.726562 0.828125 -2.328125 1.738281 -2.117188 Z M 1.738281 -2.117188 "/></g></g></g></svg>