<svg xmlns="http://www.w3.org/2000/svg" xmlns:xlink="http://www.w3.org/1999/xlink" width="1080" zoomAndPan="magnify" viewBox="0 0 810 809.999993" height="1080" preserveAspectRatio="xMidYMid meet" version="1.0"><defs><g/></defs><path fill="#ff914d" d="M 376.355469 35.011719 C 364.480469 37.453125 345.621094 43.742188 334.441406 48.632812 C 316.628906 56.664062 315.582031 57.363281 326.410156 55.964844 C 333.046875 55.269531 352.605469 52.125 369.71875 48.632812 C 396.265625 43.742188 405.695312 43.394531 432.589844 47.234375 C 537.371094 60.507812 619.800781 128.964844 649.835938 227.460938 C 657.871094 254.355469 659.265625 263.785156 658.917969 301.855469 C 658.570312 338.179688 657.171875 350.054688 650.1875 371.710938 C 641.105469 399.300781 620.847656 441.5625 614.558594 445.753906 C 612.113281 447.503906 612.464844 448.550781 615.257812 448.550781 C 620.496094 448.550781 641.804688 418.511719 654.726562 393.363281 C 671.839844 359.484375 679.175781 325.953125 679.523438 282.644531 C 679.523438 247.019531 677.078125 232.347656 665.554688 194.628906 C 660.316406 176.816406 641.804688 144.332031 625.039062 122.675781 C 569.503906 52.472656 465.070312 15.449219 376.355469 35.011719 Z M 376.355469 35.011719 " fill-opacity="1" fill-rule="nonzero"/><path fill="#ff914d" d="M 371.816406 71.683594 C 296.023438 91.242188 242.234375 135.25 215.691406 198.820312 C 200.320312 235.84375 195.78125 285.789062 204.511719 324.558594 L 209.402344 345.515625 L 211.5 300.109375 C 214.640625 234.097656 230.359375 195.328125 270.175781 154.113281 C 296.722656 126.519531 323.265625 109.753906 360.988281 96.832031 C 417.21875 77.621094 492.3125 88.101562 540.515625 121.28125 C 553.085938 129.664062 557.277344 126.171875 546.101562 116.390625 C 503.839844 79.367188 422.808594 58.410156 371.816406 71.683594 Z M 371.816406 71.683594 " fill-opacity="1" fill-rule="nonzero"/><path fill="#ff914d" d="M 393.820312 118.136719 C 364.828125 124.425781 368.671875 126.867188 407.089844 126.519531 C 454.59375 126.171875 483.933594 135.949219 517.460938 162.84375 C 579.980469 212.789062 599.542969 301.503906 563.566406 372.40625 C 559.027344 381.488281 559.722656 383.585938 565.660156 378.695312 C 579.285156 367.167969 595.351562 318.269531 595.351562 287.183594 C 595.351562 203.011719 540.164062 135.949219 456.339844 118.488281 C 427.347656 112.546875 419.316406 112.546875 393.820312 118.136719 Z M 393.820312 118.136719 " fill-opacity="1" fill-rule="nonzero"/><path fill="#ff914d" d="M 204.511719 149.570312 C 190.191406 166.6875 171.332031 206.152344 162.949219 236.191406 C 154.566406 266.925781 154.917969 337.480469 163.648438 366.46875 C 189.496094 452.042969 250.617188 514.214844 335.140625 541.457031 C 351.90625 546.695312 365.878906 548.09375 406.742188 547.742188 C 434.683594 547.742188 463.671875 545.996094 471.359375 543.902344 C 488.820312 539.710938 522.699219 525.039062 520.605469 522.945312 C 519.90625 521.898438 505.585938 524.691406 489.171875 528.535156 C 350.507812 562.761719 208.703125 471.949219 180.0625 330.496094 C 168.539062 273.5625 182.859375 193.230469 212.195312 150.621094 C 223.023438 134.902344 217.4375 134.203125 204.511719 149.570312 Z M 204.511719 149.570312 " fill-opacity="1" fill-rule="nonzero"/><path fill="#ff914d" d="M 268.082031 204.757812 C 243.980469 235.144531 234.550781 304.648438 248.871094 347.960938 C 267.730469 405.238281 316.628906 449.597656 375.308594 462.519531 C 400.457031 468.109375 466.117188 463.21875 466.117188 455.882812 C 466.117188 454.835938 448.304688 453.789062 427 453.789062 C 402.203125 453.789062 382.992188 452.042969 375.308594 448.898438 C 314.882812 425.847656 277.511719 387.777344 261.09375 332.242188 C 251.316406 298.363281 255.855469 238.636719 270.527344 211.042969 C 275.066406 202.3125 273.320312 198.121094 268.082031 204.757812 Z M 268.082031 204.757812 " fill-opacity="1" fill-rule="nonzero"/><path fill="#ff914d" d="M 622.242188 230.953125 C 620.847656 233.046875 621.195312 241.78125 623.292969 250.164062 C 631.675781 287.535156 623.292969 336.78125 601.289062 378.695312 C 579.980469 419.210938 547.5 451.691406 509.078125 470.902344 C 473.105469 488.714844 459.832031 491.859375 413.726562 491.859375 C 362.734375 492.210938 339.683594 486.269531 297.070312 461.472656 C 287.640625 456.234375 279.605469 452.390625 278.558594 453.441406 C 276.464844 455.535156 310.691406 480.683594 328.15625 489.765625 C 355.398438 504.085938 376.355469 508.972656 416.523438 510.71875 C 446.910156 511.769531 461.230469 510.71875 477.644531 506.179688 C 548.546875 486.96875 604.082031 433.53125 627.484375 362.976562 C 634.121094 342.71875 635.515625 331.542969 635.167969 297.664062 C 634.816406 274.261719 633.070312 254.703125 630.976562 252.257812 C 629.230469 249.8125 626.785156 242.828125 626.085938 237.238281 C 625.386719 230.953125 623.992188 228.507812 622.242188 230.953125 Z M 622.242188 230.953125 " fill-opacity="1" fill-rule="nonzero"/><g fill="#545454" fill-opacity="1"><g transform="translate(165.650693, 709.939347)"><g><path d="M 78.683594 -77.46875 C 78.511719 -76.425781 79.03125 -75.035156 79.03125 -73.992188 C 79.203125 -68.609375 77.988281 -63.226562 76.773438 -58.1875 C 73.820312 -45.855469 69.128906 -33.871094 63.050781 -22.753906 C 60.097656 -17.195312 56.796875 -11.8125 52.976562 -6.773438 C 51.238281 -4.515625 49.328125 -2.433594 47.417969 -0.519531 C 46.375 0.519531 41.859375 3.648438 41.6875 5.210938 C 41.6875 5.382812 45.683594 2.605469 46.027344 2.433594 C 44.464844 3.820312 42.902344 5.210938 41.164062 6.425781 C 42.035156 5.558594 38.386719 7.640625 38.386719 7.640625 C 36.996094 8.511719 35.433594 9.207031 33.695312 9.902344 C 30.917969 10.941406 27.617188 11.8125 24.492188 11.636719 C 16.152344 10.941406 15.457031 2.085938 15.980469 -4.515625 C 17.371094 -22.582031 24.664062 -41.6875 32.132812 -58.1875 C 39.949219 -75.382812 49.328125 -92.925781 61.835938 -107.167969 C 63.917969 -109.425781 67.566406 -113.597656 71.214844 -116.203125 C 64.441406 -112.03125 58.882812 -104.910156 54.367188 -98.660156 C 59.054688 -105.257812 64.789062 -112.726562 71.910156 -117.070312 C 75.210938 -118.980469 80.59375 -120.890625 81.636719 -115.855469 C 82.679688 -110.992188 79.378906 -104.910156 77.292969 -100.917969 C 73.472656 -93.96875 68.609375 -87.714844 62.703125 -82.679688 C 63.050781 -83.199219 67.914062 -88.238281 67.914062 -88.238281 C 67.394531 -88.410156 61.660156 -83.027344 61.140625 -82.503906 C 60.792969 -82.15625 54.367188 -77.816406 54.019531 -77.640625 L 54.191406 -77.640625 C 53.496094 -77.292969 52.976562 -77.121094 52.976562 -76.945312 C 51.066406 -74.167969 56.101562 -72.082031 58.1875 -71.910156 C 63.226562 -71.042969 68.261719 -75.382812 71.910156 -78.335938 C 79.203125 -83.894531 86.328125 -91.015625 91.363281 -98.832031 C 93.449219 -101.957031 96.054688 -107.691406 95.707031 -111.6875 C 95.011719 -118.980469 87.019531 -126.449219 80.59375 -129.402344 C 74.515625 -132.007812 68.089844 -129.054688 62.703125 -125.929688 C 54.539062 -121.238281 47.765625 -114.292969 41.859375 -106.820312 C 39.253906 -103.523438 36.824219 -100.046875 34.21875 -96.574219 L 30.570312 -91.363281 C 30.050781 -90.667969 29.179688 -88.757812 28.484375 -87.714844 L 28.832031 -88.0625 L 23.96875 -80.246094 L 25.011719 -82.15625 C 24.144531 -82.332031 20.324219 -75.382812 19.976562 -74.515625 C 18.0625 -71.5625 16.5 -68.4375 14.9375 -65.308594 C 11.289062 -58.1875 7.988281 -50.890625 6.078125 -42.902344 C 4.167969 -35.085938 1.5625 -27.445312 0.519531 -19.28125 C 0.171875 -15.804688 -0.171875 -12.332031 0.171875 -8.859375 C 0.171875 -7.988281 2.605469 -0.347656 2.605469 -0.347656 L 2.605469 -0.695312 C 3.125 0.695312 3.648438 2.257812 4.515625 3.996094 C 4.167969 3.300781 2.953125 1.738281 2.777344 0.867188 C 2.953125 2.257812 5.210938 5.039062 5.382812 5.382812 C 10.941406 15.457031 20.667969 25.53125 33.175781 24.316406 C 53.671875 22.234375 68.261719 -0.519531 77.292969 -17.023438 C 82.679688 -26.75 87.542969 -36.996094 90.148438 -47.941406 C 92.058594 -55.757812 94.664062 -65.136719 90.667969 -72.953125 C 89.105469 -75.90625 80.074219 -84.589844 78.683594 -77.46875 Z M 9.902344 -43.25 C 7.121094 -35.433594 3.996094 -26.75 2.777344 -18.410156 C 3.820312 -26.75 6.253906 -35.085938 8.859375 -42.902344 C 12.851562 -55.234375 18.757812 -67.566406 25.707031 -78.511719 C 32.65625 -89.277344 40.125 -99.699219 48.632812 -109.253906 C 50.71875 -111.339844 52.804688 -113.769531 55.234375 -115.855469 C 52.628906 -113.421875 50.199219 -110.644531 48.113281 -108.386719 C 39.949219 -99.179688 33.523438 -88.410156 27.097656 -77.988281 C 20.496094 -67.046875 14.070312 -55.410156 9.902344 -43.25 Z M 78.164062 -118.460938 C 80.59375 -118.113281 81.289062 -116.027344 81.117188 -113.597656 C 81.460938 -117.070312 80.246094 -119.675781 75.90625 -118.285156 C 76.597656 -118.460938 77.292969 -118.460938 78.164062 -118.460938 Z M 79.203125 -106.476562 C 80.074219 -108.386719 80.941406 -110.644531 81.117188 -113.074219 C 80.769531 -110.816406 79.898438 -108.386719 79.203125 -106.476562 Z M 42.382812 -79.550781 L 42.207031 -79.378906 L 42.382812 -79.550781 L 42.554688 -79.726562 L 41.859375 -78.511719 L 38.386719 -72.777344 L 42.207031 -79.378906 C 42.035156 -79.203125 42.035156 -79.03125 42.035156 -79.03125 C 42.035156 -79.203125 42.207031 -79.378906 42.382812 -79.550781 Z M 78.683594 -104.910156 L 77.816406 -103.175781 C 77.988281 -103.347656 78.335938 -103.871094 78.683594 -104.910156 Z M 42.730469 -80.074219 L 42.382812 -79.726562 L 43.597656 -81.808594 Z M 73.300781 -117.417969 L 72.605469 -117.070312 C 72.777344 -117.070312 72.953125 -117.070312 73.300781 -117.417969 Z M 37.867188 -71.5625 L 37.34375 -70.867188 Z M 37.867188 -71.5625 "/></g></g></g><g fill="#545454" fill-opacity="1"><g transform="translate(259.264682, 709.939347)"><g><path d="M 98.3125 -43.078125 C 97.269531 -42.902344 88.238281 -40.125 88.757812 -38.734375 C 88.757812 -38.558594 89.105469 -38.386719 89.277344 -38.386719 C 86.328125 -37.171875 82.503906 -36.996094 79.550781 -35.085938 C 76.25 -32.828125 73.125 -30.570312 69.652344 -28.660156 C 72.777344 -34.042969 75.730469 -39.777344 77.640625 -45.507812 C 78.335938 -47.59375 82.332031 -60.445312 79.726562 -61.835938 C 79.378906 -62.007812 79.203125 -60.445312 79.03125 -59.578125 C 79.203125 -66.523438 76.945312 -77.121094 67.566406 -77.816406 C 61.835938 -78.164062 56.449219 -71.042969 53.324219 -67.21875 C 46.203125 -58.1875 39.949219 -48.460938 33.695312 -39.082031 C 31.960938 -36.476562 14.589844 -8.335938 14.589844 -8.335938 C 14.589844 -8.335938 15.804688 -10.074219 17.371094 -12.332031 C 15.804688 -9.726562 14.242188 -6.949219 12.851562 -4.167969 C 13.546875 -6.773438 20.148438 -27.445312 24.316406 -39.601562 C 24.664062 -40.125 24.839844 -40.816406 25.011719 -41.339844 L 26.054688 -44.292969 L 26.054688 -44.117188 C 27.617188 -48.808594 29.179688 -53.496094 30.570312 -58.363281 C 30.570312 -57.839844 29.875 -55.234375 30.050781 -55.234375 C 31.089844 -55.0625 32.480469 -62.355469 31.785156 -62.355469 L 31.265625 -61.488281 C 31.785156 -64.09375 32.65625 -65.308594 31.089844 -68.261719 C 29.875 -70.867188 27.792969 -73.300781 24.839844 -73.992188 C 19.105469 -75.558594 16.328125 -70.867188 16.675781 -66.351562 C 16.675781 -65.65625 17.542969 -65.308594 17.542969 -64.613281 C 17.542969 -63.746094 16.675781 -62.183594 16.5 -61.488281 C 15.285156 -57.839844 14.417969 -54.367188 13.027344 -50.890625 C 12.332031 -48.980469 5.90625 -30.917969 5.90625 -30.917969 C 6.253906 -31.089844 6.425781 -31.4375 6.601562 -31.785156 C 6.078125 -30.222656 5.558594 -28.660156 4.863281 -27.097656 C 4.691406 -27.269531 5.382812 -28.484375 5.039062 -28.484375 C 3.300781 -28.832031 -1.042969 -14.242188 -1.390625 -12.851562 C -2.085938 -9.554688 -2.953125 -6.425781 -4.167969 -3.125 C -4.691406 -1.390625 -5.382812 0.347656 -5.90625 2.257812 C -5.90625 2.433594 -6.773438 6.601562 -5.90625 5.039062 C -6.078125 5.558594 -6.253906 5.90625 -6.253906 6.253906 C -6.253906 6.078125 -6.425781 5.90625 -6.425781 5.730469 C -6.949219 5.90625 -7.296875 9.554688 -7.296875 9.726562 C -7.988281 11.636719 -8.859375 13.027344 -9.726562 14.765625 C -11.984375 20.324219 -13.199219 26.402344 -14.070312 32.308594 C -15.457031 41.339844 -19.628906 54.886719 -15.113281 63.226562 C -13.546875 66.175781 -8.683594 72.257812 -4.863281 68.609375 C -3.125 66.871094 -3.125 62.878906 -2.953125 60.792969 C -1.910156 55.0625 -1.042969 49.15625 0.171875 43.421875 L 1.738281 35.433594 C 1.910156 35.085938 3.300781 28.660156 2.777344 28.832031 C 2.433594 29.179688 2.085938 29.703125 1.910156 30.222656 C 2.777344 27.445312 3.996094 24.839844 5.039062 21.886719 C 6.425781 17.71875 7.46875 13.722656 9.554688 9.902344 C 11.984375 6.078125 14.070312 1.910156 16.328125 -1.910156 C 18.0625 -5.039062 19.628906 -9.03125 21.539062 -11.636719 C 22.058594 -12.332031 23.101562 -12.679688 23.96875 -13.375 C 25.707031 -15.285156 26.921875 -17.890625 28.3125 -19.976562 C 30.917969 -24.144531 33.175781 -28.3125 35.953125 -32.132812 C 37.171875 -33.871094 51.066406 -53.324219 52.457031 -54.539062 C 52.109375 -54.367188 51.761719 -54.191406 51.414062 -53.84375 C 52.804688 -55.582031 54.367188 -57.144531 55.757812 -58.535156 C 55.929688 -58.363281 54.714844 -57.320312 54.886719 -57.144531 C 55.234375 -56.972656 63.226562 -63.226562 64.613281 -63.398438 C 68.4375 -64.09375 67.046875 -56.796875 66.523438 -54.886719 C 65.65625 -50.890625 63.398438 -47.070312 61.488281 -43.597656 C 60.445312 -41.6875 59.402344 -39.949219 58.535156 -38.039062 C 58.363281 -37.867188 56.972656 -34.566406 57.492188 -34.914062 L 56.449219 -33.347656 C 56.796875 -33.871094 56.972656 -34.566406 56.972656 -34.566406 C 56.277344 -34.566406 55.410156 -31.613281 55.234375 -31.089844 C 54.191406 -29.355469 52.804688 -27.964844 51.414062 -26.574219 C 47.765625 -22.40625 44.464844 -18.0625 40.816406 -14.070312 C 38.039062 -11.117188 34.390625 -5.90625 30.222656 -4.863281 C 27.269531 -4.167969 25.011719 -5.730469 26.574219 -1.042969 C 27.617188 2.257812 31.4375 9.902344 35.605469 9.902344 C 39.429688 9.902344 44.117188 4.167969 46.375 1.738281 C 48.980469 -1.214844 51.933594 -3.996094 54.714844 -7.121094 C 55.410156 -8.164062 63.398438 -17.71875 64.613281 -18.238281 L 64.441406 -18.238281 C 66.175781 -19.105469 67.914062 -18.410156 70.347656 -20.148438 C 71.734375 -21.191406 72.429688 -22.234375 73.992188 -23.273438 C 75.210938 -23.96875 75.730469 -24.839844 76.25 -25.359375 C 76.25 -25.359375 76.25 -25.1875 76.425781 -25.1875 C 78.164062 -26.921875 80.59375 -26.402344 82.851562 -27.964844 C 85.632812 -29.875 89.105469 -32.308594 91.535156 -34.566406 C 94.664062 -37.34375 99.007812 -38.90625 100.394531 -43.597656 C 99.699219 -43.421875 98.832031 -43.421875 98.3125 -43.078125 Z M 9.378906 -25.359375 L 9.378906 -25.1875 C 9.207031 -22.925781 7.640625 -20.324219 6.773438 -18.238281 C 5.558594 -14.9375 4.515625 -11.636719 3.472656 -8.335938 C 1.214844 -1.390625 -1.390625 5.558594 -4.167969 12.160156 C -6.425781 17.71875 -8.511719 23.796875 -10.074219 29.875 C -8.164062 21.363281 -5.039062 13.027344 -2.605469 5.039062 C -0.347656 -2.257812 3.125 -9.378906 5.90625 -16.5 C 6.253906 -17.371094 9.554688 -24.316406 9.207031 -25.707031 C 9.378906 -25.53125 9.378906 -25.359375 9.378906 -25.359375 Z M 17.023438 -20.148438 C 16.5 -18.0625 15.980469 -16.152344 15.285156 -14.417969 C 15.804688 -16.152344 16.328125 -18.238281 17.023438 -20.148438 Z M 40.816406 -48.632812 L 37.519531 -43.769531 C 38.558594 -45.335938 39.601562 -47.070312 40.816406 -48.632812 Z M 69.128906 -27.617188 C 69.304688 -28.136719 70.171875 -28.3125 70.695312 -28.660156 Z M 27.617188 -47.941406 C 27.445312 -47.765625 27.269531 -47.246094 27.097656 -46.550781 Z M 26.402344 -44.988281 L 27.097656 -46.550781 Z M 35.433594 -40.644531 L 35.433594 -40.816406 C 35.605469 -40.992188 35.605469 -40.992188 35.605469 -41.164062 C 35.78125 -41.339844 35.605469 -40.992188 35.433594 -40.644531 Z M 26.402344 -44.988281 C 26.402344 -44.640625 26.226562 -44.464844 26.054688 -44.292969 Z M -10.421875 31.4375 C -10.421875 31.265625 -10.421875 31.265625 -10.246094 31.089844 C -10.246094 31.265625 -10.246094 31.265625 -10.421875 31.4375 Z M 18.0625 -22.234375 C 18.0625 -22.058594 17.890625 -22.058594 17.890625 -22.058594 Z M 18.0625 -22.234375 "/></g></g></g><g fill="#545454" fill-opacity="1"><g transform="translate(346.799865, 709.939347)"><g><path d="M 82.15625 -42.382812 C 81.636719 -45.683594 73.648438 -36.476562 73.300781 -36.128906 C 68.261719 -30.742188 63.398438 -24.839844 57.492188 -20.148438 C 54.714844 -18.0625 53.496094 -16.847656 53.671875 -21.015625 C 53.84375 -24.664062 55.234375 -28.484375 56.277344 -31.785156 C 56.796875 -33.523438 60.273438 -40.125 59.230469 -41.339844 C 59.054688 -41.511719 58.707031 -40.992188 58.363281 -40.644531 C 60.792969 -45.507812 66.699219 -53.84375 58.882812 -56.101562 C 50.023438 -58.535156 45.507812 -48.980469 41.6875 -43.25 C 38.039062 -38.039062 34.566406 -33.003906 30.398438 -28.3125 C 27.269531 -24.664062 22.40625 -17.71875 17.371094 -16.328125 C 12.679688 -14.765625 15.804688 -22.40625 16.5 -25.011719 C 17.023438 -26.402344 23.273438 -42.554688 23.621094 -42.382812 C 23.273438 -42.382812 22.925781 -42.207031 22.582031 -41.6875 C 24.492188 -45.855469 26.574219 -50.023438 28.832031 -54.019531 C 28.3125 -52.976562 27.792969 -51.238281 27.792969 -51.238281 C 28.660156 -51.066406 32.828125 -59.578125 32.480469 -59.578125 C 32.132812 -59.402344 31.785156 -59.054688 31.4375 -58.535156 C 32.828125 -60.96875 34.566406 -62.183594 31.4375 -64.613281 C 28.3125 -67.046875 22.753906 -67.566406 19.628906 -64.789062 C 15.804688 -61.660156 13.375 -56.101562 11.464844 -51.761719 C 10.246094 -49.328125 8.164062 -47.941406 6.949219 -45.160156 C 4.515625 -39.777344 3.125 -34.390625 1.738281 -28.832031 C 0.347656 -23.449219 -0.519531 -17.890625 0.347656 -12.332031 C 0.867188 -9.902344 1.738281 -7.121094 3.648438 -5.382812 C 4.167969 -5.039062 9.207031 -3.125 8.859375 -4.34375 C 8.511719 -4.34375 8.164062 -4.34375 7.988281 -4.515625 C 9.902344 -4.515625 11.8125 -5.382812 13.546875 -6.425781 C 13.722656 -6.253906 12.160156 -5.558594 12.160156 -5.382812 C 13.894531 -3.125 27.097656 -16.5 28.3125 -18.0625 C 32.65625 -23.621094 36.996094 -29.007812 41.511719 -34.390625 C 39.253906 -28.3125 35.433594 -19.976562 39.082031 -13.375 C 41.164062 -9.902344 45.160156 -7.988281 48.980469 -8.335938 C 57.144531 -8.859375 64.441406 -17.71875 69.476562 -23.101562 C 72.777344 -26.75 76.078125 -30.570312 78.511719 -34.738281 C 79.550781 -36.476562 82.332031 -40.296875 82.15625 -42.382812 Z M 55.757812 -38.90625 C 55.410156 -37.867188 55.234375 -36.476562 54.714844 -35.605469 C 54.714844 -35.433594 54.539062 -35.261719 54.367188 -35.085938 C 54.539062 -35.261719 54.539062 -35.433594 54.539062 -35.605469 C 53.152344 -39.949219 58.363281 -45.507812 60.097656 -49.851562 C 58.707031 -46.027344 56.972656 -42.554688 55.757812 -38.90625 Z M 14.417969 -16.5 C 13.375 -21.539062 17.023438 -28.484375 18.933594 -33.175781 C 16.5 -26.402344 14.070312 -18.0625 14.417969 -16.5 Z M 41.511719 -33.523438 C 41.511719 -34.21875 41.6875 -34.738281 42.207031 -35.085938 C 41.859375 -34.566406 41.6875 -34.042969 41.511719 -33.523438 Z M 41.511719 -33.523438 "/></g></g></g><g fill="#545454" fill-opacity="1"><g transform="translate(416.272222, 709.939347)"><g><path d="M 69.476562 -44.292969 C 67.046875 -41.6875 65.484375 -37.34375 63.570312 -34.21875 C 60.621094 -29.179688 57.667969 -24.316406 54.539062 -19.453125 C 48.632812 -10.074219 42.730469 -0.519531 35.605469 7.988281 C 32.65625 11.636719 26.402344 20.496094 20.496094 19.800781 C 16.152344 19.105469 16.152344 11.636719 16.152344 8.335938 C 16.152344 5.558594 16.328125 2.777344 16.675781 0.171875 C 16.847656 -1.390625 18.238281 -6.601562 17.371094 -7.988281 L 15.980469 -2.777344 C 16.152344 -4.863281 16.5 -7.121094 17.023438 -9.207031 C 16.847656 -9.554688 18.410156 -14.417969 18.757812 -15.980469 C 19.628906 -19.453125 20.496094 -22.925781 21.539062 -26.402344 C 22.40625 -29.875 23.273438 -33.175781 24.316406 -36.476562 C 25.1875 -39.601562 26.402344 -41.164062 28.3125 -43.597656 C 36.128906 -53.324219 43.25 -63.917969 49.851562 -74.515625 C 52.28125 -78.511719 53.84375 -81.984375 56.796875 -85.285156 C 61.140625 -89.800781 64.09375 -96.574219 66.871094 -102.132812 C 71.5625 -111.164062 77.816406 -123.671875 76.773438 -134.265625 L 76.773438 -135.132812 L 76.597656 -135.308594 C 75.558594 -142.082031 69.304688 -150.070312 61.660156 -147.640625 C 57.667969 -146.425781 54.714844 -142.257812 52.28125 -139.304688 L 48.285156 -133.917969 C 47.417969 -132.875 46.203125 -130.269531 45.335938 -128.882812 L 45.507812 -129.054688 L 39.949219 -119.5 L 41.339844 -122.453125 C 40.472656 -122.628906 36.648438 -115.160156 36.128906 -114.292969 C 34.21875 -110.992188 32.480469 -107.691406 30.917969 -104.390625 C 27.445312 -97.441406 23.96875 -90.320312 21.710938 -82.851562 C 19.28125 -75.382812 16.5 -68.089844 13.894531 -60.621094 C 12.507812 -56.625 11.117188 -52.457031 9.902344 -48.460938 C 8.859375 -45.160156 6.425781 -39.777344 6.949219 -36.300781 L 7.46875 -36.300781 C 6.949219 -35.085938 6.601562 -33.871094 6.253906 -32.65625 C 6.425781 -33.695312 6.425781 -34.914062 6.601562 -35.261719 C 5.730469 -34.042969 5.90625 -29.875 5.730469 -29.527344 C 3.472656 -20.148438 0.867188 -10.769531 0.171875 -1.042969 C -0.347656 8.164062 -0.347656 20.324219 6.949219 27.097656 C 15.113281 34.566406 24.492188 29.527344 31.265625 23.101562 C 39.253906 15.285156 46.027344 6.078125 52.28125 -2.953125 C 58.015625 -11.289062 62.53125 -20.148438 67.742188 -28.484375 C 69.824219 -31.960938 72.082031 -35.433594 73.125 -39.253906 C 73.820312 -42.035156 73.472656 -48.460938 69.476562 -44.292969 Z M 47.765625 -106.476562 C 51.238281 -114.8125 54.714844 -123.324219 59.578125 -131.140625 C 60.792969 -133.050781 68.609375 -143.472656 68.261719 -134.265625 L 68.261719 -134.09375 C 67.914062 -124.367188 61.660156 -114.117188 57.492188 -105.78125 L 50.199219 -92.230469 C 47.765625 -88.0625 43.597656 -82.851562 42.207031 -78.335938 C 43.25 -81.117188 46.375 -85.109375 47.941406 -87.714844 C 50.546875 -92.058594 52.804688 -96.402344 55.234375 -100.742188 C 59.230469 -108.386719 63.570312 -116.375 66.523438 -124.710938 C 58.707031 -101.4375 44.117188 -79.726562 31.265625 -59.054688 C 36.300781 -74.339844 41.339844 -91.015625 47.765625 -106.476562 Z M 42.207031 -118.632812 C 43.945312 -121.933594 47.070312 -124.710938 48.808594 -127.839844 C 45.160156 -120.542969 40.644531 -113.945312 36.824219 -106.996094 C 36.824219 -107.167969 36.824219 -107.515625 36.996094 -107.691406 C 38.558594 -111.511719 40.296875 -114.984375 42.207031 -118.632812 Z M 9.378906 -28.832031 C 9.207031 -28.484375 9.207031 -28.3125 9.207031 -28.3125 C 7.121094 -23.449219 6.949219 -16.847656 5.90625 -11.636719 C 5.730469 -10.421875 5.382812 -9.378906 5.382812 -8.164062 L 5.382812 -8.683594 L 4.863281 -3.125 C 5.210938 -9.378906 5.90625 -15.804688 7.121094 -21.886719 L 7.121094 -21.710938 C 7.640625 -25.707031 8.511719 -29.355469 9.207031 -29.355469 C 9.554688 -29.527344 9.554688 -29.007812 9.378906 -28.832031 Z M 9.378906 -28.832031 "/></g></g></g><g fill="#545454" fill-opacity="1"><g transform="translate(477.755268, 709.939347)"><g><path d="M 66.523438 -42.902344 C 66.523438 -42.730469 66.523438 -42.730469 66.351562 -42.902344 L 66.351562 -43.078125 C 63.570312 -47.765625 59.925781 -41.339844 58.363281 -39.082031 C 55.410156 -35.085938 52.628906 -31.265625 49.503906 -27.617188 C 46.898438 -24.492188 44.117188 -21.363281 42.035156 -18.0625 C 42.035156 -17.71875 41.6875 -16.847656 41.6875 -16.847656 C 40.992188 -15.804688 39.949219 -14.9375 39.082031 -13.894531 C 37.519531 -12.332031 35.953125 -10.59375 34.21875 -9.03125 C 31.613281 -6.601562 17.023438 7.121094 15.113281 -1.738281 C 14.070312 -6.078125 15.457031 -11.464844 16.328125 -15.632812 C 16.847656 -17.890625 17.371094 -19.976562 17.71875 -22.234375 C 18.0625 -23.96875 17.542969 -25.707031 18.410156 -27.445312 C 18.933594 -28.484375 19.105469 -28.3125 20.324219 -28.660156 L 23.273438 -29.703125 C 25.1875 -30.398438 27.097656 -31.089844 28.832031 -32.132812 C 31.4375 -33.695312 33.871094 -35.605469 36.128906 -37.519531 C 41.511719 -42.035156 47.246094 -47.417969 49.503906 -54.191406 C 50.71875 -58.015625 50.890625 -62.183594 48.460938 -65.484375 C 46.203125 -68.4375 42.382812 -70 38.90625 -70.695312 C 29.527344 -72.429688 22.40625 -67.046875 17.023438 -59.925781 C 10.421875 -51.761719 5.730469 -41.6875 3.472656 -31.4375 C 2.257812 -26.402344 1.5625 -21.363281 0.695312 -16.152344 C -0.171875 -10.941406 -0.695312 -6.078125 2.085938 -1.214844 C 1.910156 -2.953125 1.5625 -4.515625 1.5625 -6.078125 C 1.5625 -6.949219 1.910156 -7.816406 1.910156 -8.511719 C 1.910156 -8.859375 1.5625 -9.902344 1.5625 -10.421875 C 1.5625 -11.984375 1.910156 -13.199219 2.257812 -14.765625 C 2.433594 -16.328125 2.257812 -17.890625 2.433594 -19.453125 C 2.605469 -21.191406 3.300781 -22.582031 3.996094 -24.144531 C 4.515625 -25.53125 4.691406 -26.75 5.210938 -28.136719 C 5.730469 -29.355469 6.078125 -30.742188 6.601562 -32.132812 C 6.773438 -33.003906 7.640625 -34.042969 8.164062 -35.085938 C 7.640625 -33.523438 6.601562 -32.132812 6.253906 -30.742188 C 5.730469 -28.660156 6.078125 -26.402344 5.90625 -24.316406 C 5.558594 -22.058594 4.863281 -19.800781 4.515625 -17.371094 C 4.167969 -15.113281 3.125 -13.027344 2.777344 -10.769531 C 2.433594 -8.683594 1.738281 -7.121094 1.910156 -5.039062 C 1.910156 -3.820312 2.085938 -2.605469 2.257812 -1.5625 C 2.433594 -0.171875 3.300781 0.695312 4.167969 1.738281 C 7.121094 5.210938 11.117188 7.988281 15.632812 9.207031 C 18.757812 10.074219 21.539062 9.902344 24.492188 8.335938 C 28.660156 6.078125 32.308594 2.605469 35.433594 -0.695312 C 38.386719 -3.996094 40.644531 -7.640625 43.25 -11.117188 C 45.683594 -14.242188 48.632812 -17.195312 51.066406 -20.324219 L 60.445312 -32.480469 L 65.832031 -39.601562 C 66.699219 -40.644531 67.21875 -41.511719 66.523438 -42.902344 Z M 23.449219 -40.992188 C 23.621094 -41.339844 23.621094 -41.511719 23.621094 -41.511719 C 26.226562 -47.070312 28.136719 -52.976562 31.785156 -58.363281 L 34.914062 -62.53125 C 35.605469 -63.398438 36.824219 -64.960938 38.039062 -65.308594 C 40.644531 -65.832031 41.339844 -61.3125 41.164062 -59.578125 L 40.472656 -55.929688 C 40.296875 -54.886719 40.644531 -54.191406 40.472656 -53.324219 C 40.125 -52.28125 39.253906 -51.761719 38.734375 -50.890625 L 35.78125 -47.070312 C 31.785156 -42.382812 26.75 -38.386719 21.191406 -35.433594 C 22.058594 -37.34375 22.582031 -39.253906 23.449219 -40.992188 Z M 23.449219 -40.992188 "/></g></g></g><g fill="#545454" fill-opacity="1"><g transform="translate(531.77002, 709.939347)"><g><path d="M 71.910156 -41.339844 C 71.042969 -45.507812 68.609375 -42.730469 67.566406 -41.164062 C 65.136719 -38.210938 61.3125 -35.433594 58.363281 -32.65625 C 54.367188 -29.179688 50.371094 -25.53125 46.203125 -22.234375 C 44.117188 -20.496094 41.511719 -18.0625 38.90625 -17.195312 C 38.558594 -17.023438 37.34375 -16.847656 37.34375 -16.675781 L 37.171875 -16.847656 C 37.171875 -16.847656 36.996094 -19.628906 37.171875 -19.800781 C 37.34375 -22.058594 38.039062 -24.316406 38.734375 -26.402344 C 38.90625 -26.75 40.816406 -32.65625 40.472656 -32.65625 L 39.601562 -31.613281 C 40.644531 -33.695312 42.035156 -35.78125 43.25 -38.039062 C 40.472656 -35.433594 38.558594 -32.480469 37.171875 -28.832031 C 36.476562 -27.097656 34.566406 -23.96875 34.21875 -21.363281 C 34.566406 -25.1875 37.171875 -30.222656 38.386719 -32.480469 C 40.125 -36.128906 42.035156 -40.296875 44.292969 -43.769531 C 48.460938 -50.023438 57.492188 -55.757812 54.714844 -64.441406 C 52.28125 -72.605469 45.855469 -72.777344 40.816406 -68.089844 C 38.386719 -65.832031 17.71875 -39.429688 18.238281 -39.082031 C 18.238281 -39.082031 19.976562 -41.164062 22.234375 -44.117188 L 11.984375 -29.179688 C 11.8125 -29.179688 13.722656 -32.132812 13.546875 -32.308594 C 13.375 -32.480469 12.160156 -31.265625 11.984375 -30.570312 C 12.332031 -34.21875 13.546875 -37.867188 13.894531 -41.511719 C 14.070312 -42.902344 13.894531 -43.945312 14.242188 -45.335938 C 14.9375 -47.59375 15.632812 -50.023438 16.675781 -51.933594 C 17.371094 -53.324219 18.757812 -54.539062 19.105469 -55.929688 C 19.800781 -58.1875 19.628906 -59.054688 21.191406 -60.96875 C 22.582031 -62.703125 24.664062 -64.441406 25.878906 -66.003906 C 28.832031 -70.347656 23.796875 -73.300781 21.015625 -73.820312 C 18.757812 -74.167969 16.5 -74.339844 14.417969 -73.125 C 12.160156 -71.734375 12.679688 -70.519531 12.160156 -68.609375 C 11.636719 -66.175781 9.902344 -63.398438 9.03125 -61.140625 C 7.640625 -57.492188 6.425781 -53.84375 5.210938 -50.199219 C 3.820312 -46.550781 2.433594 -43.078125 1.390625 -39.429688 C 0.519531 -36.476562 0.695312 -33.695312 0.347656 -30.917969 C 0 -27.792969 -0.519531 -25.707031 1.042969 -22.925781 C 2.777344 -19.976562 7.46875 -15.457031 10.59375 -19.28125 L 11.289062 -17.890625 C 14.242188 -24.316406 18.757812 -30.050781 22.40625 -36.300781 C 23.96875 -39.082031 26.75 -40.992188 29.007812 -43.945312 C 32.132812 -48.113281 34.914062 -52.28125 38.386719 -56.277344 C 37.867188 -55.410156 35.605469 -51.414062 35.78125 -51.238281 C 36.128906 -51.414062 36.300781 -51.761719 36.648438 -52.109375 L 34.21875 -47.246094 C 34.042969 -47.417969 34.914062 -48.632812 34.566406 -48.632812 C 33.347656 -48.980469 29.703125 -39.253906 29.355469 -38.386719 C 28.136719 -34.566406 27.964844 -31.089844 27.617188 -27.097656 C 27.445312 -25.1875 27.097656 -23.273438 27.097656 -21.363281 C 27.097656 -19.453125 27.269531 -17.542969 28.136719 -15.632812 C 28.660156 -14.589844 29.355469 -13.199219 30.222656 -12.332031 C 30.398438 -12.332031 32.308594 -10.59375 31.4375 -11.984375 L 32.480469 -10.941406 L 31.960938 -11.289062 C 31.785156 -10.421875 38.210938 -6.949219 39.253906 -6.601562 C 44.117188 -5.039062 49.328125 -10.59375 52.457031 -13.894531 C 56.625 -18.410156 60.097656 -23.621094 63.917969 -28.484375 C 66.003906 -31.265625 72.605469 -37.171875 71.910156 -41.339844 Z M 71.910156 -41.339844 "/></g></g></g><g fill="#545454" fill-opacity="1"><g transform="translate(590.995216, 709.939347)"><g><path d="M 70.519531 -90.320312 C 70.347656 -92.753906 67.742188 -90.84375 66.351562 -90.84375 C 59.402344 -90.496094 52.457031 -90.496094 45.683594 -90.148438 C 45.683594 -90.320312 46.027344 -91.015625 46.550781 -92.058594 C 45.855469 -90.84375 45.335938 -90.148438 44.8125 -90.148438 C 50.023438 -100.742188 55.582031 -111.339844 62.183594 -121.066406 C 62.007812 -120.71875 59.402344 -116.375 59.578125 -116.375 C 60.097656 -116.203125 66.523438 -125.058594 66.699219 -126.277344 C 66.699219 -126.972656 65.136719 -125.234375 65.136719 -125.40625 C 66.175781 -126.449219 67.914062 -127.316406 68.4375 -128.707031 C 69.652344 -132.179688 66.003906 -133.746094 63.398438 -134.265625 C 58.015625 -135.308594 51.933594 -134.613281 48.460938 -130.097656 C 45.160156 -126.101562 42.730469 -121.414062 40.644531 -116.722656 C 39.601562 -114.636719 38.210938 -114.117188 36.824219 -112.207031 C 34.738281 -109.253906 33.347656 -105.78125 31.785156 -102.480469 C 30.398438 -99.527344 29.007812 -96.402344 27.792969 -93.273438 C 27.097656 -91.710938 27.097656 -90.496094 25.53125 -89.972656 C 23.96875 -89.277344 21.015625 -89.800781 19.28125 -89.625 C 12.507812 -88.757812 5.90625 -89.105469 -0.867188 -88.410156 C -4.34375 -88.238281 -7.816406 -88.238281 -11.117188 -87.019531 C -11.8125 -86.847656 -15.632812 -85.980469 -15.980469 -85.457031 C -17.023438 -83.546875 -12.851562 -83.375 -11.984375 -83.199219 C -5.382812 -82.332031 2.953125 -81.636719 9.554688 -82.851562 C 14.070312 -83.722656 18.757812 -83.375 23.621094 -83.722656 C 21.191406 -78.511719 19.28125 -72.953125 17.371094 -67.394531 L 15.285156 -61.3125 C 14.589844 -59.402344 12.332031 -55.757812 12.332031 -53.671875 C 12.332031 -53.324219 12.851562 -54.191406 13.199219 -55.0625 C 12.332031 -52.457031 11.289062 -49.851562 10.59375 -47.246094 C 10.59375 -47.417969 11.117188 -49.503906 10.941406 -49.503906 C 10.074219 -49.503906 6.601562 -38.90625 6.253906 -38.039062 C 4.515625 -32.828125 2.605469 -27.617188 1.738281 -22.058594 C 0.695312 -16.5 -0.695312 -11.117188 -1.910156 -5.730469 C -2.605469 -2.953125 -3.300781 -0.347656 -3.648438 2.433594 C -3.996094 3.820312 -4.34375 5.382812 -4.34375 6.773438 C -4.34375 7.121094 -4.34375 9.378906 -3.996094 8.683594 L -4.34375 12.160156 L -4.34375 9.554688 C -5.382812 10.769531 -4.34375 16.328125 -4.167969 17.371094 C -3.472656 20.84375 -1.738281 23.96875 1.390625 26.054688 C 4.167969 28.136719 8.511719 30.050781 11.8125 28.484375 C 16.152344 26.402344 19.800781 21.539062 22.582031 18.0625 C 28.660156 10.941406 34.21875 3.472656 39.777344 -3.996094 C 44.8125 -10.941406 50.023438 -17.71875 54.367188 -25.011719 C 56.796875 -29.179688 61.488281 -33.003906 63.050781 -37.691406 C 63.917969 -39.949219 63.398438 -42.730469 60.621094 -42.207031 C 58.363281 -41.6875 55.234375 -35.605469 53.84375 -33.871094 C 47.59375 -26.054688 41.6875 -18.0625 35.433594 -10.246094 L 25.359375 2.085938 C 23.796875 3.820312 22.234375 5.730469 20.496094 7.46875 C 19.800781 8.335938 15.457031 11.8125 15.632812 12.851562 C 15.632812 13.199219 17.542969 11.636719 18.238281 11.117188 C 17.371094 12.160156 16.328125 13.027344 15.457031 13.894531 C 15.632812 13.722656 11.984375 15.804688 11.464844 15.457031 C 8.164062 14.070312 11.117188 3.996094 11.636719 1.5625 C 14.765625 -12.507812 19.453125 -26.75 24.144531 -40.296875 C 26.921875 -47.765625 29.703125 -54.886719 32.828125 -62.183594 C 34.390625 -65.832031 35.953125 -69.652344 37.691406 -73.300781 L 40.125 -79.898438 L 38.210938 -76.078125 C 39.429688 -79.203125 41.164062 -83.894531 42.207031 -84.066406 L 41.6875 -83.027344 C 42.035156 -83.546875 42.382812 -83.894531 42.730469 -84.066406 C 44.640625 -85.285156 49.503906 -84.066406 51.761719 -84.066406 C 53.324219 -84.066406 55.234375 -83.894531 56.796875 -84.414062 C 57.839844 -84.761719 57.492188 -85.285156 58.707031 -85.632812 C 60.792969 -85.980469 63.398438 -84.589844 65.65625 -85.285156 C 67.742188 -85.804688 70.695312 -87.714844 70.519531 -90.148438 Z M 37.519531 -80.246094 C 29.703125 -63.746094 23.796875 -46.027344 17.542969 -28.832031 C 14.589844 -21.015625 11.8125 -12.851562 9.902344 -4.691406 L 9.03125 -1.390625 C 10.246094 -7.640625 11.636719 -13.722656 13.375 -19.800781 C 17.195312 -33.175781 22.058594 -46.375 27.792969 -59.054688 C 37.519531 -80.769531 46.203125 -104.042969 60.097656 -123.671875 C 50.71875 -110.296875 44.464844 -95.011719 37.519531 -80.246094 Z M 48.980469 -97.441406 L 53.152344 -105.433594 C 52.28125 -105.257812 50.71875 -101.4375 48.980469 -97.441406 Z M 31.089844 -59.578125 C 29.875 -56.277344 28.484375 -53.152344 27.097656 -50.023438 C 28.484375 -53.324219 29.703125 -56.796875 31.265625 -60.273438 C 31.089844 -59.925781 31.089844 -59.75 31.089844 -59.578125 Z M 46.722656 -92.40625 L 48.460938 -96.226562 C 47.941406 -94.835938 47.246094 -93.449219 46.722656 -92.40625 Z M 8.859375 17.023438 C 8.683594 17.023438 8.511719 16.847656 8.335938 16.675781 Z M 8.859375 17.023438 "/></g></g></g><g fill="#737373" fill-opacity="1"><g transform="translate(353.58377, 800.962518)"><g><path d="M 24.832031 -7.390625 L 22.09375 -7.390625 C 21.242188 -5.824219 20.070312 -4.546875 18.578125 -3.625 C 17.085938 -2.664062 15.417969 -2.203125 13.640625 -2.203125 C 10.976562 -2.203125 8.703125 -3.160156 6.820312 -5.152344 C 4.972656 -7.035156 4.085938 -9.34375 4.085938 -12.042969 C 4.085938 -14.742188 4.972656 -17.050781 6.820312 -18.96875 C 7.671875 -19.859375 8.703125 -20.566406 9.875 -21.101562 C 11.011719 -21.632812 12.148438 -21.917969 13.285156 -21.917969 C 14.386719 -21.917969 15.347656 -21.777344 16.199219 -21.527344 C 18.792969 -20.746094 20.746094 -19.183594 22.058594 -16.800781 L 24.796875 -16.800781 C 23.871094 -19.074219 22.414062 -20.921875 20.390625 -22.34375 C 18.328125 -23.765625 16.09375 -24.476562 13.640625 -24.476562 C 10.265625 -24.476562 7.425781 -23.230469 5.078125 -20.78125 C 3.980469 -19.644531 3.125 -18.292969 2.523438 -16.800781 C 1.882812 -15.308594 1.597656 -13.710938 1.597656 -12.042969 C 1.597656 -8.632812 2.734375 -5.753906 5.078125 -3.339844 C 7.425781 -0.851562 10.265625 0.355469 13.640625 0.355469 C 16.09375 0.355469 18.328125 -0.355469 20.425781 -1.777344 C 22.449219 -3.195312 23.90625 -5.042969 24.832031 -7.390625 Z M 24.832031 -7.390625 "/></g></g></g><g fill="#737373" fill-opacity="1"><g transform="translate(384.632112, 800.962518)"><g><path d="M 6.570312 -8.878906 L 10.976562 -20 L 15.347656 -8.878906 Z M 21.5625 0 L 10.976562 -25.824219 L 0.355469 0 L 3.054688 0 L 5.648438 -6.570312 L 16.269531 -6.570312 L 18.863281 0 Z M 21.5625 0 "/></g></g></g><g fill="#737373" fill-opacity="1"><g transform="translate(411.701826, 800.962518)"><g><path d="M 18.4375 -6.714844 C 18.4375 -8.417969 18.011719 -9.875 17.191406 -11.011719 C 16.339844 -12.148438 15.203125 -12.929688 13.820312 -13.320312 C 14.636719 -13.675781 15.347656 -14.316406 15.878906 -15.273438 C 16.128906 -15.703125 16.304688 -16.128906 16.445312 -16.589844 C 16.589844 -17.050781 16.660156 -17.691406 16.660156 -18.507812 C 16.660156 -19.289062 16.445312 -20.105469 16.09375 -20.886719 C 15.027344 -23.054688 12.71875 -24.15625 9.199219 -24.15625 L 2.664062 -24.15625 L 2.664062 0 L 10.054688 0 C 12.503906 0 14.457031 -0.53125 15.949219 -1.667969 C 16.695312 -2.238281 17.300781 -2.984375 17.761719 -3.90625 C 18.1875 -4.796875 18.4375 -5.71875 18.4375 -6.714844 Z M 14.171875 -18.117188 C 14.171875 -16.800781 13.78125 -15.84375 13 -15.203125 C 12.21875 -14.566406 11.191406 -14.246094 9.910156 -14.246094 L 5.152344 -14.246094 L 5.152344 -21.777344 L 9.199219 -21.777344 C 12.503906 -21.777344 14.171875 -20.53125 14.171875 -18.117188 Z M 15.949219 -7.210938 C 15.949219 -5.753906 15.453125 -4.582031 14.457031 -3.695312 C 13.5 -2.804688 12.253906 -2.378906 10.761719 -2.378906 L 5.152344 -2.378906 L 5.152344 -11.757812 L 11.152344 -11.757812 C 12.398438 -11.757812 13.5 -11.332031 14.457031 -10.480469 C 14.882812 -10.089844 15.238281 -9.625 15.523438 -9.09375 C 15.808594 -8.527344 15.949219 -7.921875 15.949219 -7.210938 Z M 15.949219 -7.210938 "/></g></g></g><g fill="#737373" fill-opacity="1"><g transform="translate(436.000711, 800.962518)"><g><path d="M 9.34375 -11.367188 C 12.46875 -10.621094 14.601562 -9.804688 15.738281 -8.878906 C 16.519531 -8.242188 16.910156 -7.425781 16.910156 -6.429688 C 16.910156 -5.433594 16.695312 -4.617188 16.269531 -4.050781 C 15.203125 -2.558594 13.285156 -1.8125 10.585938 -1.8125 C 6.820312 -1.8125 4.6875 -3.089844 4.226562 -5.648438 L 1.3125 -5.648438 C 2.167969 -1.5625 5.257812 0.460938 10.585938 0.460938 C 12.964844 0.460938 14.957031 -0.0351562 16.554688 -1.101562 C 18.472656 -2.34375 19.464844 -4.191406 19.464844 -6.605469 C 19.464844 -8.597656 18.683594 -10.125 17.121094 -11.191406 C 16.019531 -11.972656 14.246094 -12.683594 11.792969 -13.320312 C 9.308594 -13.960938 7.707031 -14.492188 6.960938 -14.882812 C 5.328125 -15.703125 4.511719 -16.839844 4.546875 -18.328125 C 4.546875 -19.113281 4.6875 -19.785156 5.042969 -20.285156 C 5.96875 -21.667969 7.601562 -22.378906 9.945312 -22.378906 C 13.25 -22.378906 15.132812 -21.3125 15.628906 -19.253906 L 18.328125 -19.253906 C 17.441406 -22.734375 14.636719 -24.511719 9.945312 -24.511719 C 7.816406 -24.511719 5.933594 -23.941406 4.371094 -22.804688 C 2.769531 -21.667969 1.953125 -20 1.953125 -17.726562 C 1.953125 -14.636719 4.441406 -12.503906 9.34375 -11.367188 Z M 9.34375 -11.367188 "/></g></g></g></svg>